  0
SECTION
  2
HEADER
  9
$ACADVER
  1
AC1018
  9
$ACADMAINTVER
 70
   104
  9
$DWGCODEPAGE
  3
ANSI_936
  9
$LASTSAVEDBY
  1
TJADD
  9
$INSBASE
 10
0.0
 20
0.0
 30
0.0
  9
$EXTMIN
 10
-300115.8279739243
 20
-147691.9457662893
 30
0.0
  9
$EXTMAX
 10
-279113.6851167813
 20
-117991.9457662893
 30
0.0
  9
$LIMMIN
 10
0.0
 20
0.0
  9
$LIMMAX
 10
410.0
 20
287.0
  9
$ORTHOMODE
 70
     0
  9
$REGENMODE
 70
     1
  9
$FILLMODE
 70
     1
  9
$QTEXTMODE
 70
     0
  9
$MIRRTEXT
 70
     0
  9
$LTSCALE
 40
500.0
  9
$ATTMODE
 70
     1
  9
$TEXTSIZE
 40
350.0
  9
$TRACEWID
 40
1.0
  9
$TEXTSTYLE
  7
DIM_FONT
  9
$CLAYER
  8
dm-ÍĽżň
  9
$CELTYPE
  6
BYLAYER
  9
$CECOLOR
 62
   256
  9
$CELTSCALE
 40
1.0
  9
$DISPSILH
 70
     0
  9
$DIMSCALE
 40
1.0
  9
$DIMASZ
 40
100.0
  9
$DIMEXO
 40
100.0
  9
$DIMDLI
 40
400.0
  9
$DIMRND
 40
0.0
  9
$DIMDLE
 40
0.0
  9
$DIMEXE
 40
100.0
  9
$DIMTP
 40
0.0
  9
$DIMTM
 40
0.0
  9
$DIMTXT
 40
300.0
  9
$DIMCEN
 40
100.0
  9
$DIMTSZ
 40
0.0
  9
$DIMTOL
 70
     0
  9
$DIMLIM
 70
     0
  9
$DIMTIH
 70
     0
  9
$DIMTOH
 70
     0
  9
$DIMSE1
 70
     0
  9
$DIMSE2
 70
     0
  9
$DIMTAD
 70
     1
  9
$DIMZIN
 70
     0
  9
$DIMBLK
  1
0-dim-mark
  9
$DIMASO
 70
     1
  9
$DIMSHO
 70
     1
  9
$DIMPOST
  1

  9
$DIMAPOST
  1

  9
$DIMALT
 70
     0
  9
$DIMALTD
 70
     2
  9
$DIMALTF
 40
25.4
  9
$DIMLFAC
 40
1.0
  9
$DIMTOFL
 70
     1
  9
$DIMTVP
 40
0.0
  9
$DIMTIX
 70
     1
  9
$DIMSOXD
 70
     0
  9
$DIMSAH
 70
     0
  9
$DIMBLK1
  1

  9
$DIMBLK2
  1

  9
$DIMSTYLE
  2
S-100
  9
$DIMCLRD
 70
     0
  9
$DIMCLRE
 70
     0
  9
$DIMCLRT
 70
     0
  9
$DIMTFAC
 40
1.0
  9
$DIMGAP
 40
50.0
  9
$DIMJUST
 70
     0
  9
$DIMSD1
 70
     0
  9
$DIMSD2
 70
     0
  9
$DIMTOLJ
 70
     1
  9
$DIMTZIN
 70
     0
  9
$DIMALTZ
 70
     0
  9
$DIMALTTZ
 70
     0
  9
$DIMUPT
 70
     0
  9
$DIMDEC
 70
     0
  9
$DIMTDEC
 70
     0
  9
$DIMALTU
 70
     2
  9
$DIMALTTD
 70
     2
  9
$DIMTXSTY
  7
TongLi-Comm
  9
$DIMAUNIT
 70
     0
  9
$DIMADEC
 70
     2
  9
$DIMALTRND
 40
0.0
  9
$DIMAZIN
 70
     2
  9
$DIMDSEP
 70
    46
  9
$DIMATFIT
 70
     3
  9
$DIMFRAC
 70
     0
  9
$DIMLDRBLK
  1
0-dim-mark
  9
$DIMLUNIT
 70
     2
  9
$DIMLWD
 70
    -2
  9
$DIMLWE
 70
    -2
  9
$DIMTMOVE
 70
     2
  9
$LUNITS
 70
     2
  9
$LUPREC
 70
     4
  9
$SKETCHINC
 40
1.0
  9
$FILLETRAD
 40
0.0
  9
$AUNITS
 70
     0
  9
$AUPREC
 70
     4
  9
$MENU
  1
ACAD
  9
$ELEVATION
 40
0.0
  9
$PELEVATION
 40
0.0
  9
$THICKNESS
 40
0.0
  9
$LIMCHECK
 70
     0
  9
$CHAMFERA
 40
0.0
  9
$CHAMFERB
 40
0.0
  9
$CHAMFERC
 40
0.0
  9
$CHAMFERD
 40
0.0
  9
$SKPOLY
 70
     0
  9
$TDCREATE
 40
2461163.470229942
  9
$TDUCREATE
 40
2461163.136896609
  9
$TDUPDATE
 40
2461163.474964456
  9
$TDUUPDATE
 40
2461163.141631123
  9
$TDINDWG
 40
0.0038366898
  9
$TDUSRTIMER
 40
0.0038365394
  9
$USRTIMER
 70
     1
  9
$ANGBASE
 50
0.0
  9
$ANGDIR
 70
     0
  9
$PDMODE
 70
     1
  9
$PDSIZE
 40
-5.0
  9
$PLINEWID
 40
200.0
  9
$SPLFRAME
 70
     0
  9
$SPLINETYPE
 70
     6
  9
$SPLINESEGS
 70
    10
  9
$HANDSEED
  5
26E
  9
$SURFTAB1
 70
     6
  9
$SURFTAB2
 70
     6
  9
$SURFTYPE
 70
     6
  9
$SURFU
 70
     6
  9
$SURFV
 70
     6
  9
$UCSBASE
  2

  9
$UCSNAME
  2

  9
$UCSORG
 10
0.0
 20
0.0
 30
0.0
  9
$UCSXDIR
 10
1.0
 20
0.0
 30
0.0
  9
$UCSYDIR
 10
0.0
 20
1.0
 30
0.0
  9
$UCSORTHOREF
  2

  9
$UCSORTHOVIEW
 70
     0
  9
$UCSORGTOP
 10
0.0
 20
0.0
 30
0.0
  9
$UCSORGBOTTOM
 10
0.0
 20
0.0
 30
0.0
  9
$UCSORGLEFT
 10
0.0
 20
0.0
 30
0.0
  9
$UCSORGRIGHT
 10
0.0
 20
0.0
 30
0.0
  9
$UCSORGFRONT
 10
0.0
 20
0.0
 30
0.0
  9
$UCSORGBACK
 10
0.0
 20
0.0
 30
0.0
  9
$PUCSBASE
  2

  9
$PUCSNAME
  2

  9
$PUCSORG
 10
0.0
 20
0.0
 30
0.0
  9
$PUCSXDIR
 10
1.0
 20
0.0
 30
0.0
  9
$PUCSYDIR
 10
0.0
 20
1.0
 30
0.0
  9
$PUCSORTHOREF
  2

  9
$PUCSORTHOVIEW
 70
     0
  9
$PUCSORGTOP
 10
0.0
 20
0.0
 30
0.0
  9
$PUCSORGBOTTOM
 10
0.0
 20
0.0
 30
0.0
  9
$PUCSORGLEFT
 10
0.0
 20
0.0
 30
0.0
  9
$PUCSORGRIGHT
 10
0.0
 20
0.0
 30
0.0
  9
$PUCSORGFRONT
 10
0.0
 20
0.0
 30
0.0
  9
$PUCSORGBACK
 10
0.0
 20
0.0
 30
0.0
  9
$USERI1
 70
     2
  9
$USERI2
 70
     0
  9
$USERI3
 70
     0
  9
$USERI4
 70
     0
  9
$USERI5
 70
     0
  9
$USERR1
 40
100.0
  9
$USERR2
 40
0.0
  9
$USERR3
 40
0.0
  9
$USERR4
 40
0.0
  9
$USERR5
 40
0.0
  9
$WORLDVIEW
 70
     1
  9
$SHADEDGE
 70
     3
  9
$SHADEDIF
 70
    70
  9
$TILEMODE
 70
     1
  9
$MAXACTVP
 70
    16
  9
$PINSBASE
 10
0.0
 20
0.0
 30
0.0
  9
$PLIMCHECK
 70
     0
  9
$PEXTMIN
 10
1.000000000000000E+20
 20
1.000000000000000E+20
 30
1.000000000000000E+20
  9
$PEXTMAX
 10
-1.000000000000000E+20
 20
-1.000000000000000E+20
 30
-1.000000000000000E+20
  9
$PLIMMIN
 10
0.0
 20
0.0
  9
$PLIMMAX
 10
12.0
 20
9.0
  9
$UNITMODE
 70
     0
  9
$VISRETAIN
 70
     0
  9
$PLINEGEN
 70
     0
  9
$PSLTSCALE
 70
     0
  9
$TREEDEPTH
 70
  3020
  9
$CMLSTYLE
  2
STANDARD
  9
$CMLJUST
 70
     0
  9
$CMLSCALE
 40
100.0
  9
$PROXYGRAPHICS
 70
     1
  9
$MEASUREMENT
 70
     0
  9
$CELWEIGHT
370
    -1
  9
$ENDCAPS
280
     0
  9
$JOINSTYLE
280
     0
  9
$LWDISPLAY
290
     0
  9
$INSUNITS
 70
     0
  9
$HYPERLINKBASE
  1

  9
$STYLESHEET
  1

  9
$XEDIT
290
     1
  9
$CEPSNTYPE
380
     0
  9
$PSTYLEMODE
290
     1
  9
$FINGERPRINTGUID
  2
{9E288DF5-9F45-4B78-AC5D-4270D1A605E7}
  9
$VERSIONGUID
  2
{908A4B3F-560B-41D6-A2FB-D6556C518240}
  9
$EXTNAMES
290
     1
  9
$PSVPSCALE
 40
0.0
  9
$OLESTARTUP
290
     0
  9
$SORTENTS
280
   127
  9
$INDEXCTL
280
     0
  9
$HIDETEXT
280
     1
  9
$XCLIPFRAME
290
     0
  9
$HALOGAP
280
     0
  9
$OBSCOLOR
 70
   257
  9
$OBSLTYPE
280
     0
  9
$INTERSECTIONDISPLAY
280
     0
  9
$INTERSECTIONCOLOR
 70
   257
  9
$DIMASSOC
280
     1
  9
$PROJECTNAME
  1

  0
ENDSEC
  0
SECTION
  2
CLASSES
  0
CLASS
  1
DICTIONARYVAR
  2
AcDbDictionaryVar
  3
ObjectDBX Classes
 90
        0
 91
        3
280
     0
281
     0
  0
CLASS
  1
ARCALIGNEDTEXT
  2
AcDbArcAlignedText
  3
ATEXT|AutoCAD Express Tool|expresstools@autodesk.com
 90
        0
 91
        0
280
     1
281
     1
  0
CLASS
  1
IMAGEDEF
  2
AcDbRasterImageDef
  3
ISM
 90
        0
 91
        0
280
     0
281
     0
  0
CLASS
  1
ACDBDICTIONARYWDFLT
  2
AcDbDictionaryWithDefault
  3
ObjectDBX Classes
 90
        0
 91
        1
280
     0
281
     0
  0
CLASS
  1
TABLESTYLE
  2
AcDbTableStyle
  3
ObjectDBX Classes
 90
     4095
 91
        1
280
     0
281
     0
  0
CLASS
  1
ACAD_PROXY_OBJECT_WRAPPER
  2
AcDbProxyObjectWrapper
  3
ObjectDBX Classes
 90
        0
 91
        0
280
     0
281
     0
  0
CLASS
  1
SORTENTSTABLE
  2
AcDbSortentsTable
  3
ObjectDBX Classes
 90
        0
 91
        2
280
     0
281
     0
  0
CLASS
  1
RASTERVARIABLES
  2
AcDbRasterVariables
  3
ISM
 90
        0
 91
        0
280
     0
281
     0
  0
CLASS
  1
IMAGEDEF_REACTOR
  2
AcDbRasterImageDefReactor
  3
ISM
 90
        1
 91
        0
280
     0
281
     0
  0
CLASS
  1
IMAGE
  2
AcDbRasterImage
  3
ISM
 90
     2175
 91
        0
280
     0
281
     1
  0
CLASS
  1
MATERIAL
  2
AcDbMaterial
  3
ObjectDBX Classes
 90
     1153
 91
        3
280
     0
281
     0
  0
CLASS
  1
VISUALSTYLE
  2
AcDbVisualStyle
  3
ObjectDBX Classes
 90
     4095
 91
       19
280
     0
281
     0
  0
CLASS
  1
SOLID_BACKGROUND
  2
AcDbSolidBackground
  3
SCENEOE
 90
     4095
 91
        0
280
     0
281
     0
  0
CLASS
  1
NPOCOLLECTION
  2
AcDbImpNonPersistentObjectsCollection
  3
ObjectDBX Classes
 90
     1153
 91
        0
280
     0
281
     0
  0
CLASS
  1
SCALE
  2
AcDbScale
  3
ObjectDBX Classes
 90
     1153
 91
       33
280
     0
281
     0
  0
CLASS
  1
MLEADERSTYLE
  2
AcDbMLeaderStyle
  3
ACDB_MLEADERSTYLE_CLASS
 90
     4095
 91
        1
280
     0
281
     0
  0
CLASS
  1
CELLSTYLEMAP
  2
AcDbCellStyleMap
  3
ObjectDBX Classes
 90
     1152
 91
        4
280
     0
281
     0
  0
CLASS
  1
TCH_DBCONFIG
  2
TDbConfig
  3
"TCH_KERNAL|Č±·¦˝âĘÍĆ÷ĚěŐýÍĽĐÎż´˛»Ľű, ÇëĎÂÔŘĚěŐý˛ĺĽţ|ÍřÖ·: www.tangent.com.cn"
 90
        1
 91
        0
280
     1
281
     0
  0
CLASS
  1
TCH_DIMENSION2
  2
TDbDimension2
  3
"TCH_KERNAL|Č±·¦˝âĘÍĆ÷ĚěŐýÍĽĐÎż´˛»Ľű, ÇëĎÂÔŘĚěŐý˛ĺĽţ|ÍřÖ·: www.tangent.com.cn"
 90
        1
 91
        0
280
     1
281
     1
  0
CLASS
  1
ACAD_EVALUATION_GRAPH
  2
AcDbEvalGraph
  3
ObjectDBX Classes
 90
     1153
 91
        0
280
     0
281
     0
  0
CLASS
  1
ACAECUSTOBJ
  2
AcAeEditorObj
  3
AcAeEditorObj
 90
     1024
 91
        0
280
     1
281
     0
  0
CLASS
  1
ACDB_DYNAMICBLOCKPURGEPREVENTER_VERSION
  2
AcDbDynamicBlockPurgePreventer
  3
ObjectDBX Classes
 90
     1153
 91
        0
280
     0
281
     0
  0
CLASS
  1
PLOTSETTINGS
  2
AcDbPlotSettings
  3
ObjectDBX Classes
 90
        0
 91
        0
280
     0
281
     0
  0
CLASS
  1
EXACXREFPANELOBJECT
  2
ExAcXREFPanelObject
  3
EXAC_ESW
 90
     1025
 91
        0
280
     1
281
     0
  0
CLASS
  1
AEC_REFEDIT_STATUS_TRACKER
  2
AecDbRefEditStatusTracker
  3
AecArchBase60|Product Desc: Autodesk Architectural Desktop 2007 |Company: Autodesk,Inc. |WEB Address: www.autodesk.com
 90
      129
 91
        0
280
     1
281
     0
  0
ENDSEC
  0
SECTION
  2
TABLES
  0
TABLE
  2
VPORT
  5
29
102
{ACAD_XDICTIONARY
360
2E
102
}
330
0
100
AcDbSymbolTable
 70
     1
  0
VPORT
  5
2A
330
29
100
AcDbSymbolTableRecord
100
AcDbViewportTableRecord
  2
*Active
 70
     0
 10
0.0
 20
0.0
 11
1.0
 21
1.0
 12
-1036976.909586267
 22
-124543.4747012423
 13
0.0
 23
0.0
 14
1.0
 24
1.0
 15
10.0
 25
10.0
 16
0.0
 26
0.0
 36
1.0
 17
746129.2697871103
 27
-1797.526445791422
 37
5758.605669941266
 40
8726.534773871186
 41
2.168812589413447
 42
50.0
 43
0.0
 44
0.0
 50
0.0
 51
0.0
 71
     0
 72
   200
 73
     1
 74
     1
 75
     0
 76
     0
 77
     0
 78
     1
281
     0
 65
     1
110
0.0
120
0.0
130
0.0
111
1.0
121
0.0
131
0.0
112
0.0
122
1.0
132
0.0
 79
     0
146
0.0
1001
ACAD_NAV_VCDISPLAY
1070
     3
  0
ENDTAB
  0
TABLE
  2
LTYPE
  5
24
330
0
100
AcDbSymbolTable
 70
     1
  0
LTYPE
  5
25
330
24
100
AcDbSymbolTableRecord
100
AcDbLinetypeTableRecord
  2
BYBLOCK
 70
     0
  3

 72
    65
 73
     0
 40
0.0
  0
LTYPE
  5
26
330
24
100
AcDbSymbolTableRecord
100
AcDbLinetypeTableRecord
  2
BYLAYER
 70
     0
  3

 72
    65
 73
     0
 40
0.0
  0
LTYPE
  5
E
330
24
100
AcDbSymbolTableRecord
100
AcDbLinetypeTableRecord
  2
CONTINUOUS
 70
     0
  3
Solid line
 72
    65
 73
     0
 40
0.0
  0
ENDTAB
  0
TABLE
  2
LAYER
  5
1A
102
{ACAD_XDICTIONARY
360
1B
102
}
330
0
100
AcDbSymbolTable
 70
     4
  0
LAYER
  5
7
102
{ACAD_XDICTIONARY
360
8
102
}
330
1A
100
AcDbSymbolTableRecord
100
AcDbLayerTableRecord
  2
0
 70
     0
 62
     7
  6
CONTINUOUS
370
    -3
390
9
1001
RAK
1000
{1-JG
1070
     0
1070
     7
1000
CONTINUOUS
1070
     1
1071
       -3
1071
        1
1005
9
1000
1-JG}
1000
{ACET-LAYISO
1070
     0
1070
     7
1000
CONTINUOUS
1071
       -3
1071
        1
1005
9
1000
ACET-LAYISO}
  0
LAYER
  5
52
102
{ACAD_XDICTIONARY
360
1E0
102
}
330
1A
100
AcDbSymbolTableRecord
100
AcDbLayerTableRecord
  2
dm-ÍĽżň
 70
     0
 62
   254
  6
CONTINUOUS
370
    -3
390
9
1001
AcAecLayerStandard
1000

1000

  0
LAYER
  5
86
102
{ACAD_XDICTIONARY
360
87
102
}
330
1A
100
AcDbSymbolTableRecord
100
AcDbLayerTableRecord
  2
PUB_TEXT
 70
     0
 62
     7
  6
CONTINUOUS
370
    -3
390
9
  0
LAYER
  5
131
102
{ACAD_XDICTIONARY
360
132
102
}
330
1A
100
AcDbSymbolTableRecord
100
AcDbLayerTableRecord
  2
TEXT
 70
     0
 62
     7
  6
CONTINUOUS
370
    -3
390
9
  0
ENDTAB
  0
TABLE
  2
STYLE
  5
21
330
0
100
AcDbSymbolTable
 70
     6
  0
STYLE
  5
22
330
21
100
AcDbSymbolTableRecord
100
AcDbTextStyleTableRecord
  2
STANDARD
 70
     0
 40
350.0
 41
0.7
 50
0.0
 71
     0
 42
350.0
  3
tj04-romand1.shx
  4
hztxt5.shx
  0
STYLE
  5
32
330
21
100
AcDbSymbolTableRecord
100
AcDbTextStyleTableRecord
  2
TongLi-Comm
 70
     0
 40
0.0
 41
0.7
 50
0.0
 71
     0
 42
350.0
  3
tj04-romand1.shx
  4
hztxt5.shx
  0
STYLE
  5
54
330
21
100
AcDbSymbolTableRecord
100
AcDbTextStyleTableRecord
  2
DIM_FONT
 70
     0
 40
0.0
 41
0.7
 50
0.0
 71
     0
 42
350.0
  3
SIMPLEX
  4
GBCBIG
1001
_TCH
1040
0.85
1040
0.6
1070
     7
  0
STYLE
  5
D5
330
21
100
AcDbSymbolTableRecord
100
AcDbTextStyleTableRecord
  2
_HZTXT
 70
     0
 40
0.0
 41
1.1
 50
0.0
 71
     0
 42
0.00002
  3
SIMPLEX
  4
GBCBIG
1001
_TCH
1040
0.8
1040
0.55
1070
     0
  0
STYLE
  5
EC
330
21
100
AcDbSymbolTableRecord
100
AcDbTextStyleTableRecord
  2
şÚĚĺ
 70
     0
 40
0.0
 41
0.7800000000000001
 50
0.0
 71
     0
 42
300.0
  3
simhei.ttf
  4

1001
ACAD
1000
SimHei
1071
    34306
  0
STYLE
  5
F4
330
21
100
AcDbSymbolTableRecord
100
AcDbTextStyleTableRecord
  2
_COMPLEX
 70
     0
 40
0.0
 41
0.6
 50
0.0
 71
     0
 42
300.0
  3
COMPLEX.shx
  4

  0
ENDTAB
  0
TABLE
  2
VIEW
  5
27
330
0
100
AcDbSymbolTable
 70
     0
  0
ENDTAB
  0
TABLE
  2
UCS
  5
28
330
0
100
AcDbSymbolTable
 70
     0
  0
ENDTAB
  0
TABLE
  2
APPID
  5
2F
330
0
100
AcDbSymbolTable
 70
     9
  0
APPID
  5
20
330
2F
100
AcDbSymbolTableRecord
100
AcDbRegAppTableRecord
  2
ACAD
 70
     0
  0
APPID
  5
53
330
2F
100
AcDbSymbolTableRecord
100
AcDbRegAppTableRecord
  2
AcAecLayerStandard
 70
     0
  0
APPID
  5
1E
330
2F
100
AcDbSymbolTableRecord
100
AcDbRegAppTableRecord
  2
AcLayerTools
 70
     0
  0
APPID
  5
F
330
2F
100
AcDbSymbolTableRecord
100
AcDbRegAppTableRecord
  2
RAK
 70
     0
  0
APPID
  5
124
330
2F
100
AcDbSymbolTableRecord
100
AcDbRegAppTableRecord
  2
AcDbDynamicBlockGUID
 70
     0
  0
APPID
  5
13
330
2F
100
AcDbSymbolTableRecord
100
AcDbRegAppTableRecord
  2
ACAD_PSEXT
 70
     0
  0
APPID
  5
55
330
2F
100
AcDbSymbolTableRecord
100
AcDbRegAppTableRecord
  2
_TCH
 70
     0
  0
APPID
  5
2D
330
2F
100
AcDbSymbolTableRecord
100
AcDbRegAppTableRecord
  2
ACAD_NAV_VCDISPLAY
 70
     0
  0
APPID
  5
26D
330
2F
100
AcDbSymbolTableRecord
100
AcDbRegAppTableRecord
  2
ACAD_MLEADERVER
 70
     0
  0
ENDTAB
  0
TABLE
  2
DIMSTYLE
  5
30
330
0
100
AcDbSymbolTable
 70
     1
100
AcDbDimStyleTable
 71
     1
340
31
  0
DIMSTYLE
105
31
330
30
100
AcDbSymbolTableRecord
100
AcDbDimStyleTableRecord
  2
S-100
 70
     0
 41
100.0
 42
100.0
 43
400.0
 44
100.0
 73
     0
 74
     0
 77
     1
 79
     2
140
300.0
141
100.0
147
50.0
172
     1
174
     1
179
     2
271
     0
272
     0
279
     2
340
32
341
33
342
33
  0
ENDTAB
  0
TABLE
  2
BLOCK_RECORD
  5
1
330
0
100
AcDbSymbolTable
 70
     2
  0
BLOCK_RECORD
  5
2
102
{ACAD_XDICTIONARY
360
3
102
}
330
1
100
AcDbSymbolTableRecord
100
AcDbBlockTableRecord
  2
*MODEL_SPACE
340
11
  0
BLOCK_RECORD
  5
14
102
{ACAD_XDICTIONARY
360
15
102
}
330
1
100
AcDbSymbolTableRecord
100
AcDbBlockTableRecord
  2
*PAPER_SPACE
340
19
  0
BLOCK_RECORD
  5
33
102
{ACAD_XDICTIONARY
360
34
102
}
330
1
100
AcDbSymbolTableRecord
100
AcDbBlockTableRecord
  2
0-dim-mark
340
0
  0
BLOCK_RECORD
  5
7C
102
{ACAD_XDICTIONARY
360
7D
102
}
330
1
100
AcDbSymbolTableRecord
100
AcDbBlockTableRecord
  2
Ń×»ĆA3ÄżÂĽ
340
0
310
2800000020000000200000000100080000000000000400000000000000000000000000000000000000000000000080000080000000808000800000008000800080800000C0C0C000C0DCC000F0CAA6000020400000206000002080000020A0000020C0000020E00000400000004020000040400000406000004080000040A0
310
000040C0000040E00000600000006020000060400000606000006080000060A0000060C0000060E00000800000008020000080400000806000008080000080A0000080C0000080E00000A0000000A0200000A0400000A0600000A0800000A0A00000A0C00000A0E00000C0000000C0200000C0400000C0600000C0800000C0
310
A00000C0C00000C0E00000E0000000E0200000E0400000E0600000E0800000E0A00000E0C00000E0E00040000000400020004000400040006000400080004000A0004000C0004000E00040200000402020004020400040206000402080004020A0004020C0004020E000404000004040200040404000404060004040800040
310
40A0004040C0004040E00040600000406020004060400040606000406080004060A0004060C0004060E00040800000408020004080400040806000408080004080A0004080C0004080E00040A0000040A0200040A0400040A0600040A0800040A0A00040A0C00040A0E00040C0000040C0200040C0400040C0600040C08000
310
40C0A00040C0C00040C0E00040E0000040E0200040E0400040E0600040E0800040E0A00040E0C00040E0E00080000000800020008000400080006000800080008000A0008000C0008000E00080200000802020008020400080206000802080008020A0008020C0008020E00080400000804020008040400080406000804080
310
008040A0008040C0008040E00080600000806020008060400080606000806080008060A0008060C0008060E00080800000808020008080400080806000808080008080A0008080C0008080E00080A0000080A0200080A0400080A0600080A0800080A0A00080A0C00080A0E00080C0000080C0200080C0400080C0600080C0
310
800080C0A00080C0C00080C0E00080E0000080E0200080E0400080E0600080E0800080E0A00080E0C00080E0E000C0000000C0002000C0004000C0006000C0008000C000A000C000C000C000E000C0200000C0202000C0204000C0206000C0208000C020A000C020C000C020E000C0400000C0402000C0404000C0406000C0
310
408000C040A000C040C000C040E000C0600000C0602000C0604000C0606000C0608000C060A000C060C000C060E000C0800000C0802000C0804000C0806000C0808000C080A000C080C000C080E000C0A00000C0A02000C0A04000C0A06000C0A08000C0A0A000C0A0C000C0A0E000C0C00000C0C02000C0C04000C0C06000
310
C0C08000C0C0A000F0FBFF00A4A0A000808080000000FF0000FF000000FFFF00FF000000FF00FF00FFFF0000FFFFFF000000000000000000000000000000000000000000000000000000000000000000000000000000FFFFFFFFFFFFFFFFFFFFFFFFFFFFFFFFFFFFFFFF000000000000000000000000F9F9F9F9F9F9F9F9F9
310
F9F9F9F9F9F9F9F9F9F9F9000000000000000000000000F9000000000000FFFFFF000000FFFF00FFFF00F9000000000000000000000000F9FFFFFFFFFFFFFFFFFFFFFFFFFFFFFFFFFFFFF9000000000000000000000000F9FFFFFFFFFFFFFFFFFFFFFFFFFFFFFFFFFFFFF9000000000000000000000000F9FFFFFFFFFFFFFF
310
FFFFFFFFFFFFFFFFFFFFFFF9000000000000000000000000F9FF00000000000000000000000000000000FFF9000000000000000000000000F9FFFFFFFFFFFFFFFFFFFFFFFFFFFFFFFFFFFFF9000000000000000000000000F9FFFFFFFFFFFFFFFFFFFFFFFFFFFFFFFFFFFFF9000000000000000000000000F9FFFFFFFFFFFF
310
FFFFFFFFFFFFFFFFFFFFFFFFF9000000000000000000000000F9FFFFFFFFFFFFFFFFFFFFFFFFFFFFFFFFFFFFF9000000000000000000000000F9FFFFFFFFFFFFFFFFFFFFFFFFFFFFFFFFFFFFF9000000000000000000000000F9FFFFFFFFFFFFFFFFFFFFFFFFFFFFFFFFFFFFF9000000000000000000000000F9FFFFFFFFFF
310
FFFFFFFFFFFFFFFFFFFFFFFFFFF9000000000000000000000000F9FFFFFFFFFFFFFFFFFFFFFFFFFFFFFFFFFFFFF9000000000000000000000000F9FFFFFFFFFFFFFFFFFFFFFFFFFFFFFFFFFFFFF9000000000000000000000000F9FFFFFFFFFFFFFFFFFFFFFFFFFFFFFFFFFFFFF9000000000000000000000000F9FFFFFFFF
310
FFFFFFFFFFFFFFFFFFFFFFFFFFFFF9000000000000000000000000F9FFFFFFFFFFFFFFFFFFFFFFFFFFFFFFFFFFFFF9000000000000000000000000F9FFFFFFFFFFFFFFFFFFFFFFFFFFFFFFFFFFFFF9000000000000000000000000F9FFFFFFFFFFFFFFFFFFFFFFFFFFFFFFFFFFFFF9000000000000000000000000F9FFFFFF
310
FFFFFFFFFFFFFFFFFFFFFFFFFFFFFFF9000000000000000000000000F90000FFFFFFFFFFFF00000000FFFFFFFFFFFFF9000000000000000000000000F90000FFFFFFFFFFFF00000000FFFFFFFFFFFFF9000000000000000000000000F9000000000000000000000000000000000000F9000000000000000000000000F90000
310
00000000000000000000000000000000F9000000000000000000000000F9000000000000000000000000000000000000F9000000000000000000000000F9F9F9F9F9F9F9F9F9F9F9F9F9F9F9F9F9F9F9F9000000000000000000000000FF000000000000000000000000000000000000FF000000000000000000000000FFFF
310
FFFFFFFFFFFFFFFFFFFFFFFFFFFFFFFFFFFF0000000000000000000000000000000000000000000000000000000000000000000000000000
102
{BLKREFS
331
7B
102
}
1001
AcDbDynamicBlockGUID
1000
{C8B94E1C-3329-440F-B785-D585D53ECEC5}
  0
ENDTAB
  0
ENDSEC
  0
SECTION
  2
BLOCKS
  0
BLOCK
  5
6
330
2
100
AcDbEntity
  8
0
100
AcDbBlockBegin
  2
*MODEL_SPACE
 70
     0
 10
0.0
 20
0.0
 30
0.0
  3
*MODEL_SPACE
  1

  0
ENDBLK
  5
10
330
2
100
AcDbEntity
  8
0
100
AcDbBlockEnd
  0
BLOCK
  5
17
330
14
100
AcDbEntity
 67
     1
  8
0
100
AcDbBlockBegin
  2
*PAPER_SPACE
 70
     0
 10
0.0
 20
0.0
 30
0.0
  3
*PAPER_SPACE
  1

  0
ENDBLK
  5
18
330
14
100
AcDbEntity
 67
     1
  8
0
100
AcDbBlockEnd
  0
BLOCK
  5
36
330
33
100
AcDbEntity
  8
0
100
AcDbBlockBegin
  2
0-dim-mark
 70
     0
 10
0.0
 20
0.0
 30
0.0
  3
0-dim-mark
  1

  0
LWPOLYLINE
  5
37
330
33
100
AcDbEntity
  8
0
  6
ByBlock
 62
     0
100
AcDbPolyline
 90
        2
 70
     0
 43
0.35
 10
-0.500000000007276
 20
-0.500000000001819
 10
0.4999999999927241
 20
0.499999999998181
  0
LINE
  5
38
330
33
100
AcDbEntity
  8
0
100
AcDbLine
 10
-1.000000000007275
 20
-0.000000000001819
 30
0.0
 11
0.999999999992724
 21
-0.000000000001819
 31
0.0
  0
ENDBLK
  5
39
330
33
100
AcDbEntity
  8
0
100
AcDbBlockEnd
  0
BLOCK
  5
7E
330
7C
100
AcDbEntity
  8
0
100
AcDbBlockBegin
  2
Ń×»ĆA3ÄżÂĽ
 70
     0
 10
0.0
 20
0.0
 30
0.0
  3
Ń×»ĆA3ÄżÂĽ
  1

  0
LWPOLYLINE
  5
7F
330
7C
100
AcDbEntity
  8
0
100
AcDbPolyline
 90
        4
 70
     1
 43
0.0
 10
0.0
 20
41999.99999999988
 10
0.0
 20
0.0
 10
29700.0
 20
0.0
 10
29700.0
 20
41999.99999999988
  0
LWPOLYLINE
  5
80
330
7C
100
AcDbEntity
  8
0
 62
     1
100
AcDbPolyline
 90
        4
 70
     1
 43
100.0
 10
500.0
 20
39499.99999999988
 10
500.0
 20
500.0
 10
29200.0
 20
500.0
 10
29200.0
 20
39499.99999999988
  0
LWPOLYLINE
  5
81
330
7C
100
AcDbEntity
  8
0
100
AcDbPolyline
 90
        2
 70
     0
 43
50.0
 10
2364.529327290366
 20
31172.57953095425
 10
27364.52932729037
 20
31172.57953095425
  0
LWPOLYLINE
  5
82
330
7C
100
AcDbEntity
  8
0
100
AcDbPolyline
 90
        2
 70
     0
 43
50.0
 10
2364.529327290366
 20
31172.57953095425
 10
2364.529327290366
 20
3900.0
  0
LWPOLYLINE
  5
83
330
7C
100
AcDbEntity
  8
0
100
AcDbPolyline
 90
        2
 70
     0
 43
50.0
 10
27364.52932729037
 20
31172.57953095425
 10
27364.52932729037
 20
3900.0
  0
LWPOLYLINE
  5
84
330
7C
100
AcDbEntity
  8
0
100
AcDbPolyline
 90
        2
 70
     0
 43
50.0
 10
2364.529327290366
 20
29972.57953095425
 10
14939.52932729036
 20
29972.57953095425
  0
LINE
  5
85
330
7C
100
AcDbEntity
  8
PUB_TEXT
100
AcDbLine
 10
2364.529327290366
 20
29172.57953095425
 30
0.0
 11
14789.52932729036
 21
29172.57953095425
 31
0.0
  0
LINE
  5
88
330
7C
100
AcDbEntity
  8
PUB_TEXT
100
AcDbLine
 10
2364.529327290366
 20
28372.57953095424
 30
0.0
 11
14789.52932729036
 21
28372.57953095424
 31
0.0
  0
LINE
  5
89
330
7C
100
AcDbEntity
  8
PUB_TEXT
100
AcDbLine
 10
2364.529327290366
 20
27572.57953095424
 30
0.0
 11
14789.52932729036
 21
27572.57953095424
 31
0.0
  0
LINE
  5
8A
330
7C
100
AcDbEntity
  8
PUB_TEXT
100
AcDbLine
 10
2364.529327290366
 20
26772.57953095425
 30
0.0
 11
14789.52932729036
 21
26772.57953095425
 31
0.0
  0
LINE
  5
8B
330
7C
100
AcDbEntity
  8
PUB_TEXT
100
AcDbLine
 10
2364.529327290366
 20
25972.57953095425
 30
0.0
 11
14789.52932729036
 21
25972.57953095425
 31
0.0
  0
LINE
  5
8C
330
7C
100
AcDbEntity
  8
PUB_TEXT
100
AcDbLine
 10
2364.529327290366
 20
25172.57953095425
 30
0.0
 11
14789.52932729036
 21
25172.57953095425
 31
0.0
  0
LINE
  5
8D
330
7C
100
AcDbEntity
  8
PUB_TEXT
100
AcDbLine
 10
2364.529327290366
 20
24372.57953095425
 30
0.0
 11
14789.52932729036
 21
24372.57953095425
 31
0.0
  0
LINE
  5
8E
330
7C
100
AcDbEntity
  8
PUB_TEXT
100
AcDbLine
 10
2364.529327290366
 20
23572.57953095424
 30
0.0
 11
14789.52932729036
 21
23572.57953095424
 31
0.0
  0
LWPOLYLINE
  5
8F
330
7C
100
AcDbEntity
  8
0
100
AcDbPolyline
 90
        2
 70
     0
 43
50.0
 10
14939.52932729036
 20
29972.57953095425
 10
27364.52932729037
 20
29972.57953095425
  0
LWPOLYLINE
  5
90
330
7C
100
AcDbEntity
  8
0
100
AcDbPolyline
 90
        2
 70
     0
 43
50.0
 10
14789.52932729036
 20
29972.57953095425
 10
14789.52932729036
 20
9172.579530954244
  0
LWPOLYLINE
  5
91
330
7C
100
AcDbEntity
  8
0
100
AcDbPolyline
 90
        2
 70
     0
 43
50.0
 10
14939.52932729036
 20
29972.57953095425
 10
14939.52932729036
 20
9172.579530954244
  0
LINE
  5
92
330
7C
100
AcDbEntity
  8
0
100
AcDbLine
 10
6864.529327290366
 20
7092.579530954361
 30
0.0
 11
6864.529327290366
 21
3900.0
 31
0.0
  0
LINE
  5
93
330
7C
100
AcDbEntity
  8
0
100
AcDbLine
 10
2364.529327290366
 20
9172.579530954244
 30
0.0
 11
27364.52932729037
 21
9172.579530954244
 31
0.0
  0
LINE
  5
94
330
7C
100
AcDbEntity
  8
0
100
AcDbLine
 10
2364.529327290366
 20
7092.579530954361
 30
0.0
 11
27364.52932729037
 21
7092.579530954361
 31
0.0
  0
LINE
  5
95
330
7C
100
AcDbEntity
  8
0
100
AcDbLine
 10
2364.529327290366
 20
6292.579530954361
 30
0.0
 11
27364.52932729037
 21
6292.579530954361
 31
0.0
  0
LINE
  5
96
330
7C
100
AcDbEntity
  8
0
100
AcDbLine
 10
2364.529327290366
 20
5492.579530954361
 30
0.0
 11
27364.52932729037
 21
5492.579530954361
 31
0.0
  0
LINE
  5
97
330
7C
100
AcDbEntity
  8
0
100
AcDbLine
 10
6864.529327290366
 20
4692.57953095436
 30
0.0
 11
27364.52932729037
 21
4692.57953095436
 31
0.0
  0
LWPOLYLINE
  5
98
330
7C
100
AcDbEntity
  8
0
100
AcDbPolyline
 90
        2
 70
     0
 43
50.0
 10
2364.529327290366
 20
3900.0
 10
27364.52932729037
 20
3900.0
  0
LWPOLYLINE
  5
99
330
7C
100
AcDbEntity
  8
0
100
AcDbPolyline
 90
        2
 70
     0
 43
50.0
 10
2364.529327290366
 20
9172.579530954244
 10
27364.52932729037
 20
9172.579530954244
  0
LINE
  5
9A
330
7C
100
AcDbEntity
  8
0
100
AcDbLine
 10
14864.5293272906
 20
7092.579530954361
 30
0.0
 11
14864.5293272906
 21
3900.0
 31
0.0
  0
LINE
  5
9B
330
7C
100
AcDbEntity
  8
0
100
AcDbLine
 10
10864.5293272906
 20
7092.579530954361
 30
0.0
 11
10864.5293272906
 21
3900.0
 31
0.0
  0
LINE
  5
9C
330
7C
100
AcDbEntity
  8
0
100
AcDbLine
 10
19364.52932729037
 20
7092.579530954361
 30
0.0
 11
19364.52932729037
 21
5492.579530954361
 31
0.0
  0
LINE
  5
9D
330
7C
100
AcDbEntity
  8
0
100
AcDbLine
 10
27364.52932729037
 20
7092.579530954361
 30
0.0
 11
27364.5293272906
 21
3900.0
 31
0.0
  0
LINE
  5
9E
330
7C
100
AcDbEntity
  8
0
100
AcDbLine
 10
23364.52932729037
 20
7092.579530954361
 30
0.0
 11
23364.52932729037
 21
5492.579530954361
 31
0.0
  0
LINE
  5
9F
330
7C
100
AcDbEntity
  8
0
100
AcDbLine
 10
10881.86764595727
 20
2117.195415971568
 30
0.0
 11
14530.86764595727
 21
2117.195415971568
 31
0.0
  0
LINE
  5
A0
330
7C
100
AcDbEntity
  8
0
100
AcDbLine
 10
19321.86764595727
 20
2117.195415971568
 30
0.0
 11
22062.36764595728
 21
2117.195415971568
 31
0.0
  0
LINE
  5
A1
330
7C
100
AcDbEntity
  8
0
100
AcDbLine
 10
25112.36764595727
 20
2117.195415971568
 30
0.0
 11
26571.86764595727
 21
2117.195415971568
 31
0.0
  0
LINE
  5
A2
330
7C
100
AcDbEntity
  8
PUB_TEXT
100
AcDbLine
 10
5281.659559691325
 20
33472.99683096167
 30
0.0
 11
12889.5293272906
 21
33472.99683096167
 31
0.0
  0
LINE
  5
A3
330
7C
100
AcDbEntity
  8
PUB_TEXT
100
AcDbLine
 10
5281.659559691325
 20
31943.3154020363
 30
0.0
 11
12889.5293272906
 21
31943.3154020363
 31
0.0
  0
LINE
  5
A4
330
7C
100
AcDbEntity
  8
PUB_TEXT
100
AcDbLine
 10
19489.76295822603
 20
33472.99683096167
 30
0.0
 11
27097.6327258253
 21
33472.99683096167
 31
0.0
  0
LINE
  5
A5
330
7C
100
AcDbEntity
  8
PUB_TEXT
100
AcDbLine
 10
19489.76295822603
 20
31943.3154020363
 30
0.0
 11
27097.6327258253
 21
31943.3154020363
 31
0.0
  0
LINE
  5
A6
330
7C
100
AcDbEntity
  8
PUB_TEXT
100
AcDbLine
 10
2364.529327290366
 20
22772.57953095424
 30
0.0
 11
14789.52932729036
 21
22772.57953095424
 31
0.0
  0
LINE
  5
A7
330
7C
100
AcDbEntity
  8
PUB_TEXT
100
AcDbLine
 10
2364.529327290366
 20
21972.57953095424
 30
0.0
 11
14789.52932729036
 21
21972.57953095424
 31
0.0
  0
LINE
  5
A8
330
7C
100
AcDbEntity
  8
PUB_TEXT
100
AcDbLine
 10
2364.529327290366
 20
21172.57953095425
 30
0.0
 11
14789.52932729036
 21
21172.57953095425
 31
0.0
  0
LINE
  5
A9
330
7C
100
AcDbEntity
  8
PUB_TEXT
100
AcDbLine
 10
2364.529327290366
 20
20372.57953095425
 30
0.0
 11
14789.52932729036
 21
20372.57953095425
 31
0.0
  0
LINE
  5
AA
330
7C
100
AcDbEntity
  8
PUB_TEXT
100
AcDbLine
 10
2364.529327290366
 20
19572.57953095424
 30
0.0
 11
14789.52932729036
 21
19572.57953095424
 31
0.0
  0
LINE
  5
AB
330
7C
100
AcDbEntity
  8
PUB_TEXT
100
AcDbLine
 10
2364.529327290366
 20
18772.57953095424
 30
0.0
 11
14789.52932729036
 21
18772.57953095424
 31
0.0
  0
LINE
  5
AC
330
7C
100
AcDbEntity
  8
PUB_TEXT
100
AcDbLine
 10
2364.529327290366
 20
17972.57953095424
 30
0.0
 11
14789.52932729036
 21
17972.57953095424
 31
0.0
  0
LINE
  5
AD
330
7C
100
AcDbEntity
  8
PUB_TEXT
100
AcDbLine
 10
2364.529327290366
 20
17172.57953095424
 30
0.0
 11
14789.52932729036
 21
17172.57953095424
 31
0.0
  0
LINE
  5
AE
330
7C
100
AcDbEntity
  8
PUB_TEXT
100
AcDbLine
 10
2364.529327290366
 20
16372.57953095424
 30
0.0
 11
14789.52932729036
 21
16372.57953095424
 31
0.0
  0
LINE
  5
AF
330
7C
100
AcDbEntity
  8
PUB_TEXT
100
AcDbLine
 10
2364.529327290366
 20
15572.57953095424
 30
0.0
 11
14789.52932729036
 21
15572.57953095424
 31
0.0
  0
LINE
  5
B0
330
7C
100
AcDbEntity
  8
PUB_TEXT
100
AcDbLine
 10
2364.529327290366
 20
14772.57953095424
 30
0.0
 11
14789.52932729036
 21
14772.57953095424
 31
0.0
  0
LINE
  5
B1
330
7C
100
AcDbEntity
  8
PUB_TEXT
100
AcDbLine
 10
2364.529327290366
 20
13972.57953095424
 30
0.0
 11
14789.52932729036
 21
13972.57953095424
 31
0.0
  0
LINE
  5
B2
330
7C
100
AcDbEntity
  8
PUB_TEXT
100
AcDbLine
 10
2364.529327290366
 20
13172.57953095424
 30
0.0
 11
14789.52932729036
 21
13172.57953095424
 31
0.0
  0
LINE
  5
B3
330
7C
100
AcDbEntity
  8
PUB_TEXT
100
AcDbLine
 10
2364.529327290366
 20
12372.57953095424
 30
0.0
 11
14789.52932729036
 21
12372.57953095424
 31
0.0
  0
LINE
  5
B4
330
7C
100
AcDbEntity
  8
PUB_TEXT
100
AcDbLine
 10
2364.529327290366
 20
11572.57953095424
 30
0.0
 11
14789.52932729036
 21
11572.57953095424
 31
0.0
  0
LINE
  5
B5
330
7C
100
AcDbEntity
  8
PUB_TEXT
100
AcDbLine
 10
2364.529327290366
 20
10772.57953095424
 30
0.0
 11
14789.52932729036
 21
10772.57953095424
 31
0.0
  0
LINE
  5
B6
330
7C
100
AcDbEntity
  8
PUB_TEXT
100
AcDbLine
 10
2364.529327290366
 20
9972.579530954245
 30
0.0
 11
14789.52932729036
 21
9972.579530954245
 31
0.0
  0
LINE
  5
B7
330
7C
100
AcDbEntity
  8
PUB_TEXT
100
AcDbLine
 10
4764.529327290365
 20
29972.57953095425
 30
0.0
 11
4764.529327290365
 21
9172.579530954244
 31
0.0
  0
LINE
  5
B8
330
7C
100
AcDbEntity
  8
PUB_TEXT
100
AcDbLine
 10
11764.52932729036
 20
29972.57953095425
 30
0.0
 11
11764.52932729036
 21
9172.579530954244
 31
0.0
  0
LINE
  5
B9
330
7C
100
AcDbEntity
  8
PUB_TEXT
100
AcDbLine
 10
14939.52932729036
 20
29172.57953095425
 30
0.0
 11
27364.52932729037
 21
29172.57953095425
 31
0.0
  0
LINE
  5
BA
330
7C
100
AcDbEntity
  8
PUB_TEXT
100
AcDbLine
 10
14939.52932729036
 20
28372.57953095424
 30
0.0
 11
27364.52932729037
 21
28372.57953095424
 31
0.0
  0
LINE
  5
BB
330
7C
100
AcDbEntity
  8
PUB_TEXT
100
AcDbLine
 10
14939.52932729036
 20
27572.57953095424
 30
0.0
 11
27364.52932729037
 21
27572.57953095424
 31
0.0
  0
LINE
  5
BC
330
7C
100
AcDbEntity
  8
PUB_TEXT
100
AcDbLine
 10
14939.52932729036
 20
26772.57953095425
 30
0.0
 11
27364.52932729037
 21
26772.57953095425
 31
0.0
  0
LINE
  5
BD
330
7C
100
AcDbEntity
  8
PUB_TEXT
100
AcDbLine
 10
14939.52932729036
 20
25972.57953095425
 30
0.0
 11
27364.52932729037
 21
25972.57953095425
 31
0.0
  0
LINE
  5
BE
330
7C
100
AcDbEntity
  8
PUB_TEXT
100
AcDbLine
 10
14939.52932729036
 20
25172.57953095425
 30
0.0
 11
27364.52932729037
 21
25172.57953095425
 31
0.0
  0
LINE
  5
BF
330
7C
100
AcDbEntity
  8
PUB_TEXT
100
AcDbLine
 10
14939.52932729036
 20
24372.57953095425
 30
0.0
 11
27364.52932729037
 21
24372.57953095425
 31
0.0
  0
LINE
  5
C0
330
7C
100
AcDbEntity
  8
PUB_TEXT
100
AcDbLine
 10
14939.52932729036
 20
23572.57953095424
 30
0.0
 11
27364.52932729037
 21
23572.57953095424
 31
0.0
  0
LINE
  5
C1
330
7C
100
AcDbEntity
  8
PUB_TEXT
100
AcDbLine
 10
14939.52932729036
 20
22772.57953095424
 30
0.0
 11
27364.52932729037
 21
22772.57953095424
 31
0.0
  0
LINE
  5
C2
330
7C
100
AcDbEntity
  8
PUB_TEXT
100
AcDbLine
 10
14939.52932729036
 20
21972.57953095424
 30
0.0
 11
27364.52932729037
 21
21972.57953095424
 31
0.0
  0
LINE
  5
C3
330
7C
100
AcDbEntity
  8
PUB_TEXT
100
AcDbLine
 10
14939.52932729036
 20
21172.57953095425
 30
0.0
 11
27364.52932729037
 21
21172.57953095425
 31
0.0
  0
LINE
  5
C4
330
7C
100
AcDbEntity
  8
PUB_TEXT
100
AcDbLine
 10
14939.52932729036
 20
20372.57953095425
 30
0.0
 11
27364.52932729037
 21
20372.57953095425
 31
0.0
  0
LINE
  5
C5
330
7C
100
AcDbEntity
  8
PUB_TEXT
100
AcDbLine
 10
14939.52932729036
 20
19572.57953095424
 30
0.0
 11
27364.52932729037
 21
19572.57953095424
 31
0.0
  0
LINE
  5
C6
330
7C
100
AcDbEntity
  8
PUB_TEXT
100
AcDbLine
 10
14939.52932729036
 20
18772.57953095424
 30
0.0
 11
27364.52932729037
 21
18772.57953095424
 31
0.0
  0
LINE
  5
C7
330
7C
100
AcDbEntity
  8
PUB_TEXT
100
AcDbLine
 10
14939.52932729036
 20
17972.57953095424
 30
0.0
 11
27364.52932729037
 21
17972.57953095424
 31
0.0
  0
LINE
  5
C8
330
7C
100
AcDbEntity
  8
PUB_TEXT
100
AcDbLine
 10
14939.52932729036
 20
17172.57953095424
 30
0.0
 11
27364.52932729037
 21
17172.57953095424
 31
0.0
  0
LINE
  5
C9
330
7C
100
AcDbEntity
  8
PUB_TEXT
100
AcDbLine
 10
14939.52932729036
 20
16372.57953095424
 30
0.0
 11
27364.52932729037
 21
16372.57953095424
 31
0.0
  0
LINE
  5
CA
330
7C
100
AcDbEntity
  8
PUB_TEXT
100
AcDbLine
 10
14939.52932729036
 20
15572.57953095424
 30
0.0
 11
27364.52932729037
 21
15572.57953095424
 31
0.0
  0
LINE
  5
CB
330
7C
100
AcDbEntity
  8
PUB_TEXT
100
AcDbLine
 10
14939.52932729036
 20
14772.57953095424
 30
0.0
 11
27364.52932729037
 21
14772.57953095424
 31
0.0
  0
LINE
  5
CC
330
7C
100
AcDbEntity
  8
PUB_TEXT
100
AcDbLine
 10
14939.52932729036
 20
13972.57953095424
 30
0.0
 11
27364.52932729037
 21
13972.57953095424
 31
0.0
  0
LINE
  5
CD
330
7C
100
AcDbEntity
  8
PUB_TEXT
100
AcDbLine
 10
14939.52932729036
 20
13172.57953095424
 30
0.0
 11
27364.52932729037
 21
13172.57953095424
 31
0.0
  0
LINE
  5
CE
330
7C
100
AcDbEntity
  8
PUB_TEXT
100
AcDbLine
 10
14939.52932729036
 20
12372.57953095424
 30
0.0
 11
27364.52932729037
 21
12372.57953095424
 31
0.0
  0
LINE
  5
CF
330
7C
100
AcDbEntity
  8
PUB_TEXT
100
AcDbLine
 10
14939.52932729036
 20
11572.57953095424
 30
0.0
 11
27364.52932729037
 21
11572.57953095424
 31
0.0
  0
LINE
  5
D0
330
7C
100
AcDbEntity
  8
PUB_TEXT
100
AcDbLine
 10
14939.52932729036
 20
10772.57953095424
 30
0.0
 11
27364.52932729037
 21
10772.57953095424
 31
0.0
  0
LINE
  5
D1
330
7C
100
AcDbEntity
  8
PUB_TEXT
100
AcDbLine
 10
14939.52932729036
 20
9972.579530954245
 30
0.0
 11
27364.52932729037
 21
9972.579530954245
 31
0.0
  0
LINE
  5
D2
330
7C
100
AcDbEntity
  8
PUB_TEXT
100
AcDbLine
 10
17339.52932729036
 20
29972.57953095425
 30
0.0
 11
17339.52932729036
 21
9172.579530954244
 31
0.0
  0
LINE
  5
D3
330
7C
100
AcDbEntity
  8
PUB_TEXT
100
AcDbLine
 10
24339.52932729037
 20
29972.57953095425
 30
0.0
 11
24339.52932729037
 21
9172.579530954244
 31
0.0
  0
TEXT
  5
D4
330
7C
100
AcDbEntity
  8
PUB_TEXT
100
AcDbText
 10
22537.03494565491
 20
2169.138775925385
 30
0.0
 40
723.4042553191488
  1
Ňł
 41
1.1
  7
_HZTXT
100
AcDbText
  0
TEXT
  5
D6
330
7C
100
AcDbEntity
  8
PUB_TEXT
100
AcDbText
 10
23937.36169337528
 20
2169.138775925385
 30
0.0
 40
723.4042553191488
  1
´ÎŁş
 41
1.1
  7
_HZTXT
100
AcDbText
  0
TEXT
  5
D7
330
7C
100
AcDbEntity
  8
PUB_TEXT
100
AcDbText
 10
15286.07175705605
 20
2169.138775925385
 30
0.0
 40
723.4042553191488
  1
Éč
 41
1.1
  7
_HZTXT
100
AcDbText
  0
TEXT
  5
D8
330
7C
100
AcDbEntity
  8
PUB_TEXT
100
AcDbText
 10
16275.8627904907
 20
2169.138775925385
 30
0.0
 40
723.4042553191488
  1
ĽĆ
 41
1.1
  7
_HZTXT
100
AcDbText
  0
TEXT
  5
D9
330
7C
100
AcDbEntity
  8
PUB_TEXT
100
AcDbText
 10
17265.65382392535
 20
2169.138775925385
 30
0.0
 40
723.4042553191488
  1
ČŐ
 41
1.1
  7
_HZTXT
100
AcDbText
  0
TEXT
  5
DA
330
7C
100
AcDbEntity
  8
PUB_TEXT
100
AcDbText
 10
18255.44485736
 20
2169.138775925385
 30
0.0
 40
723.4042553191488
  1
ĆÚŁş
 41
1.1
  7
_HZTXT
100
AcDbText
  0
TEXT
  5
DB
330
7C
100
AcDbEntity
  8
PUB_TEXT
100
AcDbText
 10
19310.8183148962
 20
4901.950371774844
 30
0.0
 40
482.2695035460993
  1
ÄÚ
 41
1.1
  7
_HZTXT
100
AcDbText
  0
TEXT
  5
DC
330
7C
100
AcDbEntity
  8
PUB_TEXT
100
AcDbText
 10
20518.05995623359
 20
4901.950371774844
 30
0.0
 40
482.2695035460993
  1
ČÝ
 41
1.1
  7
_HZTXT
100
AcDbText
  0
TEXT
  5
DD
330
7C
100
AcDbEntity
  8
PUB_TEXT
100
AcDbText
 10
21725.30159757097
 20
4901.950371774844
 30
0.0
 40
482.2695035460993
  1
ŐŞ
 41
1.1
  7
_HZTXT
100
AcDbText
  0
TEXT
  5
DE
330
7C
100
AcDbEntity
  8
PUB_TEXT
100
AcDbText
 10
22932.54323890836
 20
4901.950371774844
 30
0.0
 40
482.2695035460993
  1
ŇŞ
 41
1.1
  7
_HZTXT
100
AcDbText
  0
TEXT
  5
DF
330
7C
100
AcDbEntity
  8
PUB_TEXT
100
AcDbText
 10
11910.35625954252
 20
4901.950371774844
 30
0.0
 40
482.2695035460993
  1
ľ­
 41
1.1
  7
_HZTXT
100
AcDbText
  0
TEXT
  5
E0
330
7C
100
AcDbEntity
  8
PUB_TEXT
100
AcDbText
 10
12570.21694849895
 20
4901.950371774844
 30
0.0
 40
482.2695035460993
  1
°ě
 41
1.1
  7
_HZTXT
100
AcDbText
  0
TEXT
  5
E1
330
7C
100
AcDbEntity
  8
PUB_TEXT
100
AcDbText
 10
13230.07763745538
 20
4901.950371774844
 30
0.0
 40
482.2695035460993
  1
ČË
 41
1.1
  7
_HZTXT
100
AcDbText
  0
TEXT
  5
E2
330
7C
100
AcDbEntity
  8
PUB_TEXT
100
AcDbText
 10
6028.132332924986
 20
2169.138775925385
 30
0.0
 40
723.4042553191488
  1
ą¤
 41
1.1
  7
_HZTXT
100
AcDbText
  0
TEXT
  5
E3
330
7C
100
AcDbEntity
  8
PUB_TEXT
100
AcDbText
 10
7017.923366359638
 20
2169.138775925385
 30
0.0
 40
723.4042553191488
  1
łĚ
 41
1.1
  7
_HZTXT
100
AcDbText
  0
TEXT
  5
E4
330
7C
100
AcDbEntity
  8
PUB_TEXT
100
AcDbText
 10
8007.714399794288
 20
2169.138775925385
 30
0.0
 40
723.4042553191488
  1
Ö÷
 41
1.1
  7
_HZTXT
100
AcDbText
  0
TEXT
  5
E5
330
7C
100
AcDbEntity
  8
PUB_TEXT
100
AcDbText
 10
8997.505433228939
 20
2169.138775925385
 30
0.0
 40
723.4042553191488
  1
łÖ
 41
1.1
  7
_HZTXT
100
AcDbText
  0
TEXT
  5
E6
330
7C
100
AcDbEntity
  8
PUB_TEXT
100
AcDbText
 10
9987.29646666359
 20
2169.138775925385
 30
0.0
 40
723.4042553191488
  1
ČËŁş
 41
1.1
  7
_HZTXT
100
AcDbText
  0
TEXT
  5
E7
330
7C
100
AcDbEntity
  8
PUB_TEXT
100
AcDbText
 10
7834.318314896198
 20
4901.950371774844
 30
0.0
 40
482.2695035460993
  1
ČŐ
 41
1.1
  7
_HZTXT
100
AcDbText
  0
TEXT
  5
E8
330
7C
100
AcDbEntity
  8
PUB_TEXT
100
AcDbText
 10
9041.559956233584
 20
4901.950371774844
 30
0.0
 40
482.2695035460993
  1
ĆÚ
 41
1.1
  7
_HZTXT
100
AcDbText
  0
TEXT
  5
E9
330
7C
100
AcDbEntity
  8
PUB_TEXT
100
AcDbText
 10
3086.156055126339
 20
4556.154730245587
 30
0.0
 40
482.2695035460993
  1
¸ü¸ÄĽ°×÷·ĎĽÇÂĽ
 41
1.1
  7
_HZTXT
100
AcDbText
  0
TEXT
  5
EA
330
7C
100
AcDbEntity
  8
PUB_TEXT
100
AcDbText
 10
3289.645876413677
 20
6498.639887357829
 30
0.0
 40
482.2695035460993
  1
˝¨Öţ¸şÔđČË
 41
1.1
  7
_HZTXT
100
AcDbText
  0
TEXT
  5
EB
330
7C
100
AcDbEntity
  8
PUB_TEXT
100
AcDbText
 10
3915.483108532615
 20
30320.10385713144
 30
0.0
 40
563.2911392405063
  1
˝¨Öţ×¨ŇµÍĽÖ˝ÄżÂĽ
 41
0.7800000000000001
  7
şÚĚĺ
100
AcDbText
  0
TEXT
  5
ED
330
7C
100
AcDbEntity
  8
PUB_TEXT
100
AcDbText
 10
12196.50029733893
 20
35650.70560081879
 30
0.0
 40
675.177304964539
  1
ą¤
 41
1.1
  7
_HZTXT
100
AcDbText
  0
TEXT
  5
EE
330
7C
100
AcDbEntity
  8
PUB_TEXT
100
AcDbText
 10
13120.30526187794
 20
35650.70560081879
 30
0.0
 40
675.177304964539
  1
łĚ
 41
1.1
  7
_HZTXT
100
AcDbText
  0
TEXT
  5
EF
330
7C
100
AcDbEntity
  8
PUB_TEXT
100
AcDbText
 10
14044.11022641695
 20
35650.70560081879
 30
0.0
 40
675.177304964539
  1
Éč
 41
1.1
  7
_HZTXT
100
AcDbText
  0
TEXT
  5
F0
330
7C
100
AcDbEntity
  8
PUB_TEXT
100
AcDbText
 10
14967.91519095595
 20
35650.70560081879
 30
0.0
 40
675.177304964539
  1
ĽĆ
 41
1.1
  7
_HZTXT
100
AcDbText
  0
TEXT
  5
F1
330
7C
100
AcDbEntity
  8
PUB_TEXT
100
AcDbText
 10
15891.72015549496
 20
35650.70560081879
 30
0.0
 40
675.177304964539
  1
ÍĽ
 41
1.1
  7
_HZTXT
100
AcDbText
  0
TEXT
  5
F2
330
7C
100
AcDbEntity
  8
PUB_TEXT
100
AcDbText
 10
16815.52512003397
 20
35650.70560081879
 30
0.0
 40
675.177304964539
  1
Ö˝
 41
1.1
  7
_HZTXT
100
AcDbText
  0
TEXT
  5
F3
330
7C
100
AcDbEntity
  8
PUB_TEXT
100
AcDbText
 10
12303.03963557398
 20
35066.87969902816
 30
0.0
 40
320.0
  1
PROJECT
 41
0.6
  7
_COMPLEX
100
AcDbText
  0
TEXT
  5
F5
330
7C
100
AcDbEntity
  8
PUB_TEXT
100
AcDbText
 10
13793.32534985969
 20
35066.87969902816
 30
0.0
 40
320.0
  1
DESIGN
 41
0.6
  7
_COMPLEX
100
AcDbText
  0
TEXT
  5
F6
330
7C
100
AcDbEntity
  8
PUB_TEXT
100
AcDbText
 10
15082.46820700255
 20
35066.87969902816
 30
0.0
 40
320.0
  1
DRAWINGS
 41
0.6
  7
_COMPLEX
100
AcDbText
  0
TEXT
  5
F7
330
7C
100
AcDbEntity
  8
PUB_TEXT
100
AcDbText
 10
8421.112243739655
 20
37913.14131308973
 30
0.0
 40
751.054852320675
  1
±±ľ©Ń×»ĆÁŞşĎąúĽĘą¤łĚÉčĽĆÓĐĎŢą«Ëľ
 41
0.7800000000000001
  7
şÚĚĺ
100
AcDbText
  0
TEXT
  5
F8
330
7C
100
AcDbEntity
  8
PUB_TEXT
100
AcDbText
 10
8122.629080305166
 20
37087.59896541941
 30
0.0
 40
380.0
  1
BEIJING
 41
0.6
  7
_COMPLEX
100
AcDbText
  0
TEXT
  5
F9
330
7C
100
AcDbEntity
  8
PUB_TEXT
100
AcDbText
 10
9718.629080305168
 20
37087.59896541941
 30
0.0
 40
380.0
  1
YANHUANG
 41
0.6
  7
_COMPLEX
100
AcDbText
  0
TEXT
  5
FA
330
7C
100
AcDbEntity
  8
PUB_TEXT
100
AcDbText
 10
11900.91479459088
 20
37087.59896541941
 30
0.0
 40
380.0
  1
INTERNATIONAL
 41
0.6
  7
_COMPLEX
100
AcDbText
  0
TEXT
  5
FB
330
7C
100
AcDbEntity
  8
PUB_TEXT
100
AcDbText
 10
14886.62908030516
 20
37087.59896541941
 30
0.0
 40
380.0
  1
ARCHITECTURE
 41
0.6
  7
_COMPLEX
100
AcDbText
  0
TEXT
  5
FC
330
7C
100
AcDbEntity
  8
PUB_TEXT
100
AcDbText
 10
17785.48622316231
 20
37087.59896541941
 30
0.0
 40
380.0
  1
&
 41
0.6
  7
_COMPLEX
100
AcDbText
  0
TEXT
  5
FD
330
7C
100
AcDbEntity
  8
PUB_TEXT
100
AcDbText
 10
18263.20050887659
 20
37087.59896541941
 30
0.0
 40
380.0
  1
ENGINEERING
 41
0.6
  7
_COMPLEX
100
AcDbText
  0
TEXT
  5
FE
330
7C
100
AcDbEntity
  8
PUB_TEXT
100
AcDbText
 10
20901.48622316231
 20
37087.59896541941
 30
0.0
 40
380.0
  1
CO.,LTD.
 41
0.6
  7
_COMPLEX
100
AcDbText
  0
TEXT
  5
FF
330
7C
100
AcDbEntity
  8
PUB_TEXT
100
AcDbText
 10
2362.10381840216
 20
32347.55997479497
 30
0.0
 40
482.2695035460993
  1
ą¤
 41
1.1
  7
_HZTXT
100
AcDbText
  0
TEXT
  5
100
330
7C
100
AcDbEntity
  8
PUB_TEXT
100
AcDbText
 10
3021.964507358593
 20
32347.55997479497
 30
0.0
 40
482.2695035460993
  1
łĚ
 41
1.1
  7
_HZTXT
100
AcDbText
  0
TEXT
  5
101
330
7C
100
AcDbEntity
  8
PUB_TEXT
100
AcDbText
 10
3681.825196315028
 20
32347.55997479497
 30
0.0
 40
482.2695035460993
  1
±ŕ
 41
1.1
  7
_HZTXT
100
AcDbText
  0
TEXT
  5
102
330
7C
100
AcDbEntity
  8
PUB_TEXT
100
AcDbText
 10
4341.685885271461
 20
32347.55997479497
 30
0.0
 40
482.2695035460993
  1
şĹ
 41
1.1
  7
_HZTXT
100
AcDbText
  0
TEXT
  5
103
330
7C
100
AcDbEntity
  8
PUB_TEXT
100
AcDbText
 10
2331.074900672305
 20
33889.91950299498
 30
0.0
 40
482.2695035460993
  1
ą¤
 41
1.1
  7
_HZTXT
100
AcDbText
  0
TEXT
  5
104
330
7C
100
AcDbEntity
  8
PUB_TEXT
100
AcDbText
 10
2990.935589628739
 20
33889.91950299498
 30
0.0
 40
482.2695035460993
  1
łĚ
 41
1.1
  7
_HZTXT
100
AcDbText
  0
TEXT
  5
105
330
7C
100
AcDbEntity
  8
PUB_TEXT
100
AcDbText
 10
3650.796278585173
 20
33889.91950299498
 30
0.0
 40
482.2695035460993
  1
Ăű
 41
1.1
  7
_HZTXT
100
AcDbText
  0
TEXT
  5
106
330
7C
100
AcDbEntity
  8
PUB_TEXT
100
AcDbText
 10
4310.656967541606
 20
33889.91950299498
 30
0.0
 40
482.2695035460993
  1
łĆ
 41
1.1
  7
_HZTXT
100
AcDbText
  0
TEXT
  5
107
330
7C
100
AcDbEntity
  8
PUB_TEXT
100
AcDbText
 10
2332.665001079906
 20
33221.648447535
 30
0.0
 40
300.0
  1
PROJECT
 41
0.6
  7
_COMPLEX
100
AcDbText
  0
TEXT
  5
108
330
7C
100
AcDbEntity
  8
PUB_TEXT
100
AcDbText
 10
3729.807858222763
 20
33221.648447535
 30
0.0
 40
300.0
  1
NAME
 41
0.6
  7
_COMPLEX
100
AcDbText
  0
TEXT
  5
109
330
7C
100
AcDbEntity
  8
PUB_TEXT
100
AcDbText
 10
2516.245783493389
 20
31693.08147264063
 30
0.0
 40
300.0
  1
PROJECT
 41
0.6
  7
_COMPLEX
100
AcDbText
  0
TEXT
  5
10A
330
7C
100
AcDbEntity
  8
PUB_TEXT
100
AcDbText
 10
3913.388640636246
 20
31693.08147264063
 30
0.0
 40
300.0
  1
NO
 41
0.6
  7
_COMPLEX
100
AcDbText
  0
TEXT
  5
10B
330
7C
100
AcDbEntity
  8
PUB_TEXT
100
AcDbText
 10
16570.20721693686
 20
32347.55997479497
 30
0.0
 40
482.2695035460993
  1
˝¨
 41
1.1
  7
_HZTXT
100
AcDbText
  0
TEXT
  5
10C
330
7C
100
AcDbEntity
  8
PUB_TEXT
100
AcDbText
 10
17230.06790589329
 20
32347.55997479497
 30
0.0
 40
482.2695035460993
  1
Öţ
 41
1.1
  7
_HZTXT
100
AcDbText
  0
TEXT
  5
10D
330
7C
100
AcDbEntity
  8
PUB_TEXT
100
AcDbText
 10
17889.92859484973
 20
32347.55997479497
 30
0.0
 40
482.2695035460993
  1
Ăć
 41
1.1
  7
_HZTXT
100
AcDbText
  0
TEXT
  5
10E
330
7C
100
AcDbEntity
  8
PUB_TEXT
100
AcDbText
 10
18549.78928380616
 20
32347.55997479497
 30
0.0
 40
482.2695035460993
  1
»ý
 41
1.1
  7
_HZTXT
100
AcDbText
  0
TEXT
  5
10F
330
7C
100
AcDbEntity
  8
PUB_TEXT
100
AcDbText
 10
16539.17829920701
 20
33889.91950299498
 30
0.0
 40
482.2695035460993
  1
Ďî
 41
1.1
  7
_HZTXT
100
AcDbText
  0
TEXT
  5
110
330
7C
100
AcDbEntity
  8
PUB_TEXT
100
AcDbText
 10
17199.03898816344
 20
33889.91950299498
 30
0.0
 40
482.2695035460993
  1
Äż
 41
1.1
  7
_HZTXT
100
AcDbText
  0
TEXT
  5
111
330
7C
100
AcDbEntity
  8
PUB_TEXT
100
AcDbText
 10
17858.89967711987
 20
33889.91950299498
 30
0.0
 40
482.2695035460993
  1
Ăű
 41
1.1
  7
_HZTXT
100
AcDbText
  0
TEXT
  5
112
330
7C
100
AcDbEntity
  8
PUB_TEXT
100
AcDbText
 10
18518.76036607631
 20
33889.91950299498
 30
0.0
 40
482.2695035460993
  1
łĆ
 41
1.1
  7
_HZTXT
100
AcDbText
  0
TEXT
  5
113
330
7C
100
AcDbEntity
  8
PUB_TEXT
100
AcDbText
 10
16646.13643298135
 20
33221.648447535
 30
0.0
 40
300.0
  1
ITEM
 41
0.6
  7
_COMPLEX
100
AcDbText
  0
TEXT
  5
114
330
7C
100
AcDbEntity
  8
PUB_TEXT
100
AcDbText
 10
17657.56500440992
 20
33221.648447535
 30
0.0
 40
300.0
  1
NAME
 41
0.6
  7
_COMPLEX
100
AcDbText
  0
TEXT
  5
115
330
7C
100
AcDbEntity
  8
PUB_TEXT
100
AcDbText
 10
16615.16464100079
 20
31693.08147264063
 30
0.0
 40
300.0
  1
BUILDING
 41
0.6
  7
_COMPLEX
100
AcDbText
  0
TEXT
  5
116
330
7C
100
AcDbEntity
  8
PUB_TEXT
100
AcDbText
 10
18115.16464100079
 20
31693.08147264063
 30
0.0
 40
300.0
  1
AREA
 41
0.6
  7
_COMPLEX
100
AcDbText
  0
TEXT
  5
117
330
7C
100
AcDbEntity
  8
PUB_TEXT
100
AcDbText
 10
3069.09367331164
 20
29256.58685542794
 30
0.0
 40
482.2695035460993
  1
ÍĽ
 41
1.1
  7
_HZTXT
100
AcDbText
  0
TEXT
  5
118
330
7C
100
AcDbEntity
  8
PUB_TEXT
100
AcDbText
 10
4002.644838458549
 20
29256.58685542794
 30
0.0
 40
482.2695035460993
  1
şĹ
 41
1.1
  7
_HZTXT
100
AcDbText
  0
TEXT
  5
119
330
7C
100
AcDbEntity
  8
PUB_TEXT
100
AcDbText
 10
6571.568977392743
 20
29256.58685542794
 30
0.0
 40
482.2695035460993
  1
ÍĽ
 41
1.1
  7
_HZTXT
100
AcDbText
  0
TEXT
  5
11A
330
7C
100
AcDbEntity
  8
PUB_TEXT
100
AcDbText
 10
9694.643952063463
 20
29256.58685542794
 30
0.0
 40
482.2695035460993
  1
Ăű
 41
1.1
  7
_HZTXT
100
AcDbText
  0
TEXT
  5
11B
330
7C
100
AcDbEntity
  8
PUB_TEXT
100
AcDbText
 10
12586.72681831801
 20
29256.58685542794
 30
0.0
 40
482.2695035460993
  1
¸˝
 41
1.1
  7
_HZTXT
100
AcDbText
  0
TEXT
  5
11C
330
7C
100
AcDbEntity
  8
PUB_TEXT
100
AcDbText
 10
13793.9684596554
 20
29256.58685542794
 30
0.0
 40
482.2695035460993
  1
×˘
 41
1.1
  7
_HZTXT
100
AcDbText
  0
TEXT
  5
11D
330
7C
100
AcDbEntity
  8
PUB_TEXT
100
AcDbText
 10
15644.09367331164
 20
29256.58685542794
 30
0.0
 40
482.2695035460993
  1
ÍĽ
 41
1.1
  7
_HZTXT
100
AcDbText
  0
TEXT
  5
11E
330
7C
100
AcDbEntity
  8
PUB_TEXT
100
AcDbText
 10
16577.64483845855
 20
29256.58685542794
 30
0.0
 40
482.2695035460993
  1
şĹ
 41
1.1
  7
_HZTXT
100
AcDbText
  0
TEXT
  5
11F
330
7C
100
AcDbEntity
  8
PUB_TEXT
100
AcDbText
 10
19146.56897739274
 20
29256.58685542794
 30
0.0
 40
482.2695035460993
  1
ÍĽ
 41
1.1
  7
_HZTXT
100
AcDbText
  0
TEXT
  5
120
330
7C
100
AcDbEntity
  8
PUB_TEXT
100
AcDbText
 10
22269.64395206346
 20
29256.58685542794
 30
0.0
 40
482.2695035460993
  1
Ăű
 41
1.1
  7
_HZTXT
100
AcDbText
  0
TEXT
  5
121
330
7C
100
AcDbEntity
  8
PUB_TEXT
100
AcDbText
 10
25161.72681831801
 20
29256.58685542794
 30
0.0
 40
482.2695035460993
  1
¸˝
 41
1.1
  7
_HZTXT
100
AcDbText
  0
TEXT
  5
122
330
7C
100
AcDbEntity
  8
PUB_TEXT
100
AcDbText
 10
26368.9684596554
 20
29256.58685542794
 30
0.0
 40
482.2695035460993
  1
×˘
 41
1.1
  7
_HZTXT
100
AcDbText
  0
ENDBLK
  5
123
330
7C
100
AcDbEntity
  8
0
100
AcDbBlockEnd
  0
ENDSEC
  0
SECTION
  2
ENTITIES
  0
INSERT
  5
7B
330
2
100
AcDbEntity
  8
0
100
AcDbBlockReference
  2
Ń×»ĆA3ÄżÂĽ
 10
-300115.8279739243
 20
-147691.9457662893
 30
0.0
 41
0.7071428571428591
 42
0.7071428571428591
 43
0.7071428571428591
  0
TEXT
  5
125
330
2
100
AcDbEntity
  8
PUB_TEXT
100
AcDbText
 10
-282131.3091502295
 20
-146000.4278307676
 30
0.0
 40
282.8571428571436
  1
1/1
 41
0.7562500000000001
  7
_HZTXT
100
AcDbText
  0
TEXT
  5
126
330
2
100
AcDbEntity
  8
PUB_TEXT
100
AcDbText
 10
-286248.5878423324
 20
-146016.8317160078
 30
0.0
 40
282.8571428571436
  1
2010.07
 41
0.7562500000000001
  7
_HZTXT
100
AcDbText
  0
TEXT
  5
127
330
2
100
AcDbEntity
  8
PUB_TEXT
100
AcDbText
 10
-296174.1911453112
 20
-123824.7967486016
 30
0.0
 40
341.0334346504569
  1
Î÷şěĂĹ
 41
1.1
  7
_HZTXT
100
AcDbText
  0
TEXT
  5
128
330
2
100
AcDbEntity
  8
PUB_TEXT
100
AcDbText
 10
-295354.9586225149
 20
-123824.7967486016
 30
0.0
 40
282.8571428571436
  1
0306
 41
0.7562500000000001
  7
_HZTXT
100
AcDbText
  0
TEXT
  5
129
330
2
100
AcDbEntity
  8
PUB_TEXT
100
AcDbText
 10
-294540.0606633312
 20
-123824.7967486016
 30
0.0
 40
341.0334346504569
  1
µŘżé»ŘÇ¨·żĎîÄż
 41
1.1
  7
_HZTXT
100
AcDbText
  0
TEXT
  5
12A
330
2
100
AcDbEntity
  8
PUB_TEXT
100
AcDbText
 10
-295997.3454135441
 20
-124933.6239785522
 30
0.0
 40
282.8571428571436
  1
08-01-05-2
 41
0.7562500000000001
  7
_HZTXT
100
AcDbText
  0
TEXT
  5
12B
330
2
100
AcDbEntity
  8
PUB_TEXT
100
AcDbText
 10
-286127.0323134903
 20
-123824.7967486016
 30
0.0
 40
282.8571428571436
  1
1
 41
0.7562500000000001
  7
_HZTXT
100
AcDbText
  0
TEXT
  5
12C
330
2
100
AcDbEntity
  8
PUB_TEXT
100
AcDbText
 10
-285964.0527216535
 20
-123824.7967486016
 30
0.0
 40
341.0334346504569
  1
ŁŁ×ˇŐ¬ÂĄ
 41
1.1
  7
_HZTXT
100
AcDbText
  0
TEXT
  5
12D
330
2
100
AcDbEntity
  8
PUB_TEXT
100
AcDbText
 10
-285950.1865817231
 20
-124933.6239785522
 30
0.0
 40
282.8571428571436
  1
10875
 41
0.7562500000000001
  7
_HZTXT
100
AcDbText
  0
TEXT
  5
12E
330
2
100
AcDbEntity
  8
PUB_TEXT
100
AcDbText
 10
-284778.7707653967
 20
-124933.6239785522
 30
0.0
 40
282.8571428571436
  1
m
 41
0.7562500000000001
  7
_HZTXT
100
AcDbText
  0
TEXT
  5
12F
330
2
100
AcDbEntity
  8
PUB_TEXT
100
AcDbText
 10
-284473.1840307027
 20
-124756.8382642665
 30
0.0
 40
141.4285714285718
  1
2
 41
0.7562500000000001
  7
_HZTXT
100
AcDbText
  0
TEXT
  5
130
330
2
100
AcDbEntity
  8
TEXT
100
AcDbText
 10
-298301.1180442641
 20
-131504.8173357486
 30
0.0
 40
341.0334346504569
  1
˝¨
 41
1.1
  7
_HZTXT
100
AcDbText
  0
TEXT
  5
133
330
2
100
AcDbEntity
  8
TEXT
100
AcDbText
 10
-297834.5022713592
 20
-131504.8173357486
 30
0.0
 40
282.8571428571436
  1
1-
 41
0.7562500000000001
  7
_HZTXT
100
AcDbText
  0
TEXT
  5
134
330
2
100
AcDbEntity
  8
TEXT
100
AcDbText
 10
-298301.1180442641
 20
-132070.5316214628
 30
0.0
 40
341.0334346504569
  1
˝¨
 41
1.1
  7
_HZTXT
100
AcDbText
  0
TEXT
  5
135
330
2
100
AcDbEntity
  8
TEXT
100
AcDbText
 10
-297834.5022713592
 20
-132070.5316214628
 30
0.0
 40
282.8571428571436
  1
1-
 41
0.7562500000000001
  7
_HZTXT
100
AcDbText
  0
TEXT
  5
136
330
2
100
AcDbEntity
  8
TEXT
100
AcDbText
 10
-298301.1180442641
 20
-132636.2459071771
 30
0.0
 40
341.0334346504569
  1
˝¨
 41
1.1
  7
_HZTXT
100
AcDbText
  0
TEXT
  5
137
330
2
100
AcDbEntity
  8
TEXT
100
AcDbText
 10
-297834.5022713592
 20
-132636.2459071771
 30
0.0
 40
282.8571428571436
  1
1-
 41
0.7562500000000001
  7
_HZTXT
100
AcDbText
  0
TEXT
  5
138
330
2
100
AcDbEntity
  8
TEXT
100
AcDbText
 10
-298301.1180442641
 20
-133767.6744786057
 30
0.0
 40
341.0334346504569
  1
˝¨
 41
1.1
  7
_HZTXT
100
AcDbText
  0
TEXT
  5
139
330
2
100
AcDbEntity
  8
TEXT
100
AcDbText
 10
-297834.5022713592
 20
-133767.6744786057
 30
0.0
 40
282.8571428571436
  1
1-
 41
0.7562500000000001
  7
_HZTXT
100
AcDbText
  0
TEXT
  5
13A
330
2
100
AcDbEntity
  8
TEXT
100
AcDbText
 10
-298301.1180443062
 20
-134899.1030500343
 30
0.0
 40
341.0334346504569
  1
˝¨
 41
1.1
  7
_HZTXT
100
AcDbText
  0
TEXT
  5
13B
330
2
100
AcDbEntity
  8
TEXT
100
AcDbText
 10
-297834.5022714013
 20
-134899.1030500343
 30
0.0
 40
282.8571428571436
  1
1-
 41
0.7562500000000001
  7
_HZTXT
100
AcDbText
  0
TEXT
  5
13C
330
2
100
AcDbEntity
  8
TEXT
100
AcDbText
 10
-298301.1180443062
 20
-136596.2459071772
 30
0.0
 40
341.0334346504569
  1
˝¨
 41
1.1
  7
_HZTXT
100
AcDbText
  0
TEXT
  5
13D
330
2
100
AcDbEntity
  8
TEXT
100
AcDbText
 10
-297834.5022714013
 20
-136596.2459071772
 30
0.0
 40
282.8571428571436
  1
1-
 41
0.7562500000000001
  7
_HZTXT
100
AcDbText
  0
TEXT
  5
13E
330
2
100
AcDbEntity
  8
TEXT
100
AcDbText
 10
-296282.0710706137
 20
-132636.2459072193
 30
0.0
 40
282.8571428571436
  1
1
 41
0.7562500000000001
  7
_HZTXT
100
AcDbText
  0
TEXT
  5
13F
330
2
100
AcDbEntity
  8
TEXT
100
AcDbText
 10
-296119.0914787769
 20
-132636.2459072193
 30
0.0
 40
341.0334346504569
  1
ŁŁÂĄ±ę×Ľ˛ăĆ˝ĂćÍĽ
 41
1.1
  7
_HZTXT
100
AcDbText
  0
TEXT
  5
140
330
2
100
AcDbEntity
  8
TEXT
100
AcDbText
 10
-296282.0710705715
 20
-131504.8173357486
 30
0.0
 40
282.8571428571436
  1
1
 41
0.7562500000000001
  7
_HZTXT
100
AcDbText
  0
TEXT
  5
141
330
2
100
AcDbEntity
  8
TEXT
100
AcDbText
 10
-296119.0914787348
 20
-131504.8173357486
 30
0.0
 40
341.0334346504569
  1
ŁŁÂĄĘ×˛ăĆ˝ĂćÍĽ
 41
1.1
  7
_HZTXT
100
AcDbText
  0
TEXT
  5
142
330
2
100
AcDbEntity
  8
TEXT
100
AcDbText
 10
-296282.0710705715
 20
-132070.5316214628
 30
0.0
 40
282.8571428571436
  1
1
 41
0.7562500000000001
  7
_HZTXT
100
AcDbText
  0
TEXT
  5
143
330
2
100
AcDbEntity
  8
TEXT
100
AcDbText
 10
-296119.0914787348
 20
-132070.5316214628
 30
0.0
 40
341.0334346504569
  1
ŁŁÂĄµŘĎÂŇ»˛ăĆ˝ĂćÍĽ
 41
1.1
  7
_HZTXT
100
AcDbText
  0
TEXT
  5
144
330
2
100
AcDbEntity
  8
TEXT
100
AcDbText
 10
-296282.0710706137
 20
-133201.9601929335
 30
0.0
 40
282.8571428571436
  1
1
 41
0.7562500000000001
  7
_HZTXT
100
AcDbText
  0
TEXT
  5
145
330
2
100
AcDbEntity
  8
TEXT
100
AcDbText
 10
-296119.0914787769
 20
-133201.9601929335
 30
0.0
 40
341.0334346504569
  1
ŁŁÂĄÎÝ¶ĄĆ˝ĂćÍĽ
 41
1.1
  7
_HZTXT
100
AcDbText
  0
TEXT
  5
146
330
2
100
AcDbEntity
  8
TEXT
100
AcDbText
 10
-296282.0710706137
 20
-133767.6744786479
 30
0.0
 40
282.8571428571436
  1
1
 41
0.7562500000000001
  7
_HZTXT
100
AcDbText
  0
TEXT
  5
147
330
2
100
AcDbEntity
  8
TEXT
100
AcDbText
 10
-296119.0914787769
 20
-133767.6744786479
 30
0.0
 40
341.0334346504569
  1
ŁŁÂĄ
 41
1.1
  7
_HZTXT
100
AcDbText
  0
CIRCLE
  5
148
330
2
100
AcDbEntity
  8
TEXT
100
AcDbCircle
 10
-295396.1507492937
 20
-133626.2459072193
 30
0.0
 40
159.1071428571433
  0
TEXT
  5
149
330
2
100
AcDbEntity
  8
TEXT
100
AcDbText
 10
-295486.1553410133
 20
-133716.2504989389
 30
0.0
 40
180.0091834392044
  1
01
 41
0.8399999999999479
  7
_HZTXT
 72
     5
 11
-295306.1461575741
 21
-133716.2504989389
 31
0.0
100
AcDbText
  0
TEXT
  5
14A
330
2
100
AcDbEntity
  8
TEXT
100
AcDbText
 10
-295219.365035008
 20
-133767.6744786479
 30
0.0
 40
282.8571428571436
  1
-
 41
0.7562500000000001
  7
_HZTXT
100
AcDbText
  0
CIRCLE
  5
14B
330
2
100
AcDbEntity
  8
TEXT
100
AcDbCircle
 10
-294777.7374839875
 20
-133626.2459072193
 30
0.0
 40
159.1071428571433
  0
TEXT
  5
14C
330
2
100
AcDbEntity
  8
TEXT
100
AcDbText
 10
-294867.7420757071
 20
-133716.2504989389
 30
0.0
 40
180.0091834392044
  1
26
 41
0.6363636363633912
  7
_HZTXT
 72
     5
 11
-294687.732892268
 21
-133716.2504989389
 31
0.0
100
AcDbText
  0
TEXT
  5
14D
330
2
100
AcDbEntity
  8
TEXT
100
AcDbText
 10
-294600.9517697018
 20
-133767.6744786479
 30
0.0
 40
341.0334346504569
  1
ÖáÁ˘ĂćÍĽ
 41
1.1
  7
_HZTXT
100
AcDbText
  0
TEXT
  5
14E
330
2
100
AcDbEntity
  8
TEXT
100
AcDbText
 10
-296282.0710706137
 20
-134333.3887643621
 30
0.0
 40
282.8571428571436
  1
1
 41
0.7562500000000001
  7
_HZTXT
100
AcDbText
  0
TEXT
  5
14F
330
2
100
AcDbEntity
  8
TEXT
100
AcDbText
 10
-296119.0914787769
 20
-134333.3887643621
 30
0.0
 40
341.0334346504569
  1
ŁŁÂĄ
 41
1.1
  7
_HZTXT
100
AcDbText
  0
CIRCLE
  5
150
330
2
100
AcDbEntity
  8
TEXT
100
AcDbCircle
 10
-295396.1507492937
 20
-134191.9601929336
 30
0.0
 40
159.1071428571433
  0
TEXT
  5
151
330
2
100
AcDbEntity
  8
TEXT
100
AcDbText
 10
-295486.1553410133
 20
-134281.9647846532
 30
0.0
 40
180.0091834392044
  1
26
 41
0.6363636363635969
  7
_HZTXT
 72
     5
 11
-295306.1461575741
 21
-134281.9647846532
 31
0.0
100
AcDbText
  0
TEXT
  5
152
330
2
100
AcDbEntity
  8
TEXT
100
AcDbText
 10
-295219.365035008
 20
-134333.3887643621
 30
0.0
 40
282.8571428571436
  1
-
 41
0.7562500000000001
  7
_HZTXT
100
AcDbText
  0
CIRCLE
  5
153
330
2
100
AcDbEntity
  8
TEXT
100
AcDbCircle
 10
-294777.7374839875
 20
-134191.9601929336
 30
0.0
 40
159.1071428571433
  0
TEXT
  5
154
330
2
100
AcDbEntity
  8
TEXT
100
AcDbText
 10
-294867.7420757071
 20
-134281.9647846532
 30
0.0
 40
180.0091834392044
  1
01
 41
0.8399999999996763
  7
_HZTXT
 72
     5
 11
-294687.732892268
 21
-134281.9647846532
 31
0.0
100
AcDbText
  0
TEXT
  5
155
330
2
100
AcDbEntity
  8
TEXT
100
AcDbText
 10
-294600.9517697018
 20
-134333.3887643621
 30
0.0
 40
341.0334346504569
  1
ÖáÁ˘ĂćÍĽ
 41
1.1
  7
_HZTXT
100
AcDbText
  0
TEXT
  5
156
330
2
100
AcDbEntity
  8
TEXT
100
AcDbText
 10
-296282.0710706137
 20
-134899.1030500764
 30
0.0
 40
282.8571428571436
  1
1
 41
0.7562500000000001
  7
_HZTXT
100
AcDbText
  0
TEXT
  5
157
330
2
100
AcDbEntity
  8
TEXT
100
AcDbText
 10
-296119.0914787769
 20
-134899.1030500764
 30
0.0
 40
341.0334346504569
  1
ŁŁÂĄ
 41
1.1
  7
_HZTXT
100
AcDbText
  0
CIRCLE
  5
158
330
2
100
AcDbEntity
  8
TEXT
100
AcDbCircle
 10
-295396.1507492937
 20
-134757.6744786479
 30
0.0
 40
159.1071428571433
  0
TEXT
  5
159
330
2
100
AcDbEntity
  8
TEXT
100
AcDbText
 10
-295486.1553410133
 20
-134847.6790703674
 30
0.0
 40
180.0091834392044
  1
A
 41
1.312499999999918
  7
_HZTXT
 72
     5
 11
-295306.1461575741
 21
-134847.6790703674
 31
0.0
100
AcDbText
  0
TEXT
  5
15A
330
2
100
AcDbEntity
  8
TEXT
100
AcDbText
 10
-295219.365035008
 20
-134899.1030500764
 30
0.0
 40
282.8571428571436
  1
-
 41
0.7562500000000001
  7
_HZTXT
100
AcDbText
  0
CIRCLE
  5
15B
330
2
100
AcDbEntity
  8
TEXT
100
AcDbCircle
 10
-294777.7374839875
 20
-134757.6744786479
 30
0.0
 40
159.1071428571433
  0
TEXT
  5
15C
330
2
100
AcDbEntity
  8
TEXT
100
AcDbText
 10
-294867.7420757071
 20
-134847.6790703674
 30
0.0
 40
180.0091834392044
  1
Q
 41
1.312499999999494
  7
_HZTXT
 72
     5
 11
-294687.732892268
 21
-134847.6790703674
 31
0.0
100
AcDbText
  0
TEXT
  5
15D
330
2
100
AcDbEntity
  8
TEXT
100
AcDbText
 10
-294600.9517697018
 20
-134899.1030500764
 30
0.0
 40
341.0334346504569
  1
ÖáÁ˘ĂćÍĽ
 41
1.1
  7
_HZTXT
100
AcDbText
  0
TEXT
  5
15E
330
2
100
AcDbEntity
  8
TEXT
100
AcDbText
 10
-296282.0710705715
 20
-136030.5316214629
 30
0.0
 40
282.8571428571436
  1
1
 41
0.7562500000000001
  7
_HZTXT
100
AcDbText
  0
TEXT
  5
15F
330
2
100
AcDbEntity
  8
TEXT
100
AcDbText
 10
-296119.0914787348
 20
-136030.5316214629
 30
0.0
 40
341.0334346504569
  1
ŁŁÂĄ
 41
1.1
  7
_HZTXT
100
AcDbText
  0
TEXT
  5
160
330
2
100
AcDbEntity
  8
TEXT
100
AcDbText
 10
-295572.9364635372
 20
-136030.5316214629
 30
0.0
 40
282.8571428571436
  1
1-1
 41
0.7562500000000001
  7
_HZTXT
100
AcDbText
  0
TEXT
  5
161
330
2
100
AcDbEntity
  8
TEXT
100
AcDbText
 10
-294982.1354431291
 20
-136030.5316214629
 30
0.0
 40
341.0334346504569
  1
ĆĘĂćÍĽ
 41
1.1
  7
_HZTXT
100
AcDbText
  0
TEXT
  5
162
330
2
100
AcDbEntity
  8
TEXT
100
AcDbText
 10
-297341.4134315798
 20
-134899.1030500343
 30
0.0
 40
282.8571428571436
  1
05
 41
0.7562500000000001
  7
_HZTXT
100
AcDbText
  0
TEXT
  5
163
330
2
100
AcDbEntity
  8
TEXT
100
AcDbText
 10
-297341.4134315798
 20
-132070.5316214628
 30
0.0
 40
282.8571428571436
  1
02
 41
0.7562500000000001
  7
_HZTXT
100
AcDbText
  0
TEXT
  5
164
330
2
100
AcDbEntity
  8
TEXT
100
AcDbText
 10
-297341.4134315798
 20
-132636.2459071771
 30
0.0
 40
282.8571428571436
  1
03
 41
0.7562500000000001
  7
_HZTXT
100
AcDbText
  0
TEXT
  5
165
330
2
100
AcDbEntity
  8
TEXT
100
AcDbText
 10
-297341.4134315798
 20
-133767.6744786057
 30
0.0
 40
282.8571428571436
  1
04
 41
0.7562500000000001
  7
_HZTXT
100
AcDbText
  0
TEXT
  5
166
330
2
100
AcDbEntity
  8
TEXT
100
AcDbText
 10
-297341.413431622
 20
-136596.245907135
 30
0.0
 40
282.8571428571436
  1
06
 41
0.7562500000000001
  7
_HZTXT
100
AcDbText
  0
TEXT
  5
167
330
2
100
AcDbEntity
  8
TEXT
100
AcDbText
 10
-297341.413431622
 20
-131504.8173357907
 30
0.0
 40
282.8571428571436
  1
01
 41
0.7562500000000001
  7
_HZTXT
100
AcDbText
  0
TEXT
  5
168
330
2
100
AcDbEntity
  8
TEXT
100
AcDbText
 10
-298301.1180443062
 20
-137161.9601928493
 30
0.0
 40
341.0334346504569
  1
˝¨
 41
1.1
  7
_HZTXT
100
AcDbText
  0
TEXT
  5
169
330
2
100
AcDbEntity
  8
TEXT
100
AcDbText
 10
-297834.5022714013
 20
-137161.9601928493
 30
0.0
 40
282.8571428571436
  1
1-
 41
0.7562500000000001
  7
_HZTXT
100
AcDbText
  0
TEXT
  5
16A
330
2
100
AcDbEntity
  8
TEXT
100
AcDbText
 10
-297341.413431622
 20
-137161.9601928071
 30
0.0
 40
282.8571428571436
  1
07
 41
0.7562500000000001
  7
_HZTXT
100
AcDbText
  0
TEXT
  5
16B
330
2
100
AcDbEntity
  8
TEXT
100
AcDbText
 10
-298301.1180443062
 20
-137727.6744785636
 30
0.0
 40
341.0334346504569
  1
˝¨
 41
1.1
  7
_HZTXT
100
AcDbText
  0
TEXT
  5
16C
330
2
100
AcDbEntity
  8
TEXT
100
AcDbText
 10
-297834.5022714013
 20
-137727.6744785636
 30
0.0
 40
282.8571428571436
  1
1-
 41
0.7562500000000001
  7
_HZTXT
100
AcDbText
  0
TEXT
  5
16D
330
2
100
AcDbEntity
  8
TEXT
100
AcDbText
 10
-297341.413431622
 20
-137727.6744785215
 30
0.0
 40
282.8571428571436
  1
08
 41
0.7562500000000001
  7
_HZTXT
100
AcDbText
  0
TEXT
  5
16E
330
2
100
AcDbEntity
  8
TEXT
100
AcDbText
 10
-296282.0710705715
 20
-137161.9601928914
 30
0.0
 40
282.8571428571436
  1
1
 41
0.7562500000000001
  7
_HZTXT
100
AcDbText
  0
TEXT
  5
16F
330
2
100
AcDbEntity
  8
TEXT
100
AcDbText
 10
-296119.0914787348
 20
-137161.9601928914
 30
0.0
 40
341.0334346504569
  1
ŁŁÂĄ
 41
1.1
  7
_HZTXT
100
AcDbText
  0
TEXT
  5
170
330
2
100
AcDbEntity
  8
TEXT
100
AcDbText
 10
-295379.3981982311
 20
-137161.9601928914
 30
0.0
 40
282.8571428571436
  1
1
 41
0.7562500000000001
  7
_HZTXT
100
AcDbText
  0
TEXT
  5
171
330
2
100
AcDbEntity
  8
TEXT
100
AcDbText
 10
-295216.4186063944
 20
-137161.9601928914
 30
0.0
 40
341.0334346504569
  1
ŁŁÂĄµçĚÝĽäĎęÍĽ
 41
1.1
  7
_HZTXT
100
AcDbText
  0
TEXT
  5
172
330
2
100
AcDbEntity
  8
TEXT
100
AcDbText
 10
-296282.0710705715
 20
-136596.2459071772
 30
0.0
 40
282.8571428571436
  1
1
 41
0.7562500000000001
  7
_HZTXT
100
AcDbText
  0
TEXT
  5
173
330
2
100
AcDbEntity
  8
TEXT
100
AcDbText
 10
-296119.0914787348
 20
-136596.2459071772
 30
0.0
 40
341.0334346504569
  1
ŁŁÂĄ»§ĐÍĆ˝ĂćĎęÍĽ
 41
1.1
  7
_HZTXT
100
AcDbText
  0
TEXT
  5
174
330
2
100
AcDbEntity
  8
TEXT
100
AcDbText
 10
-296282.0710705715
 20
-137727.6744786057
 30
0.0
 40
282.8571428571436
  1
1
 41
0.7562500000000001
  7
_HZTXT
100
AcDbText
  0
TEXT
  5
175
330
2
100
AcDbEntity
  8
TEXT
100
AcDbText
 10
-296119.0914787348
 20
-137727.6744786057
 30
0.0
 40
341.0334346504569
  1
ŁŁÂĄ
 41
1.1
  7
_HZTXT
100
AcDbText
  0
TEXT
  5
176
330
2
100
AcDbEntity
  8
TEXT
100
AcDbText
 10
-295379.3981982311
 20
-137727.6744786057
 30
0.0
 40
282.8571428571436
  1
2
 41
0.7562500000000001
  7
_HZTXT
100
AcDbText
  0
TEXT
  5
177
330
2
100
AcDbEntity
  8
TEXT
100
AcDbText
 10
-295175.6737084352
 20
-137727.6744786057
 30
0.0
 40
341.0334346504569
  1
ŁŁ
 41
1.1
  7
_HZTXT
100
AcDbText
  0
TEXT
  5
178
330
2
100
AcDbEntity
  8
TEXT
100
AcDbText
 10
-294902.5962008364
 20
-137727.6744786057
 30
0.0
 40
282.8571428571436
  1
3
 41
0.7562500000000001
  7
_HZTXT
100
AcDbText
  0
TEXT
  5
179
330
2
100
AcDbEntity
  8
TEXT
100
AcDbText
 10
-294698.8717110404
 20
-137727.6744786057
 30
0.0
 40
341.0334346504569
  1
ŁŁÂĄµçĚÝĽäĎęÍĽ
 41
1.1
  7
_HZTXT
100
AcDbText
  0
TEXT
  5
17A
330
2
100
AcDbEntity
  8
TEXT
100
AcDbText
 10
-296282.0710706137
 20
-135464.8173357907
 30
0.0
 40
282.8571428571436
  1
1
 41
0.7562500000000001
  7
_HZTXT
100
AcDbText
  0
TEXT
  5
17B
330
2
100
AcDbEntity
  8
TEXT
100
AcDbText
 10
-296119.0914787769
 20
-135464.8173357907
 30
0.0
 40
341.0334346504569
  1
ŁŁÂĄ
 41
1.1
  7
_HZTXT
100
AcDbText
  0
CIRCLE
  5
17C
330
2
100
AcDbEntity
  8
TEXT
100
AcDbCircle
 10
-295396.1507492937
 20
-135323.3887643621
 30
0.0
 40
159.1071428571433
  0
TEXT
  5
17D
330
2
100
AcDbEntity
  8
TEXT
100
AcDbText
 10
-295486.1553410133
 20
-135413.3933560818
 30
0.0
 40
180.0091834392044
  1
Q
 41
1.312499999999918
  7
_HZTXT
 72
     5
 11
-295306.1461575741
 21
-135413.3933560818
 31
0.0
100
AcDbText
  0
TEXT
  5
17E
330
2
100
AcDbEntity
  8
TEXT
100
AcDbText
 10
-295219.365035008
 20
-135464.8173357907
 30
0.0
 40
282.8571428571436
  1
-
 41
0.7562500000000001
  7
_HZTXT
100
AcDbText
  0
CIRCLE
  5
17F
330
2
100
AcDbEntity
  8
TEXT
100
AcDbCircle
 10
-294777.7374839875
 20
-135323.3887643621
 30
0.0
 40
159.1071428571433
  0
TEXT
  5
180
330
2
100
AcDbEntity
  8
TEXT
100
AcDbText
 10
-294867.7420757071
 20
-135413.3933560818
 30
0.0
 40
180.0091834392044
  1
A
 41
1.312499999999494
  7
_HZTXT
 72
     5
 11
-294687.732892268
 21
-135413.3933560818
 31
0.0
100
AcDbText
  0
TEXT
  5
181
330
2
100
AcDbEntity
  8
TEXT
100
AcDbText
 10
-294600.9517697018
 20
-135464.8173357907
 30
0.0
 40
341.0334346504569
  1
ÖáÁ˘ĂćÍĽ
 41
1.1
  7
_HZTXT
100
AcDbText
  0
TEXT
  5
182
330
2
100
AcDbEntity
  8
TEXT
100
AcDbText
 10
-298301.1180442641
 20
-128110.5316214629
 30
0.0
 40
341.0334346504569
  1
˝¨×Ü
 41
1.1
  7
_HZTXT
100
AcDbText
  0
TEXT
  5
183
330
2
100
AcDbEntity
  8
TEXT
100
AcDbText
 10
-297754.9630290665
 20
-128110.5316214629
 30
0.0
 40
282.8571428571436
  1
1-
 41
0.7562500000000001
  7
_HZTXT
100
AcDbText
  0
TEXT
  5
184
330
2
100
AcDbEntity
  8
TEXT
100
AcDbText
 10
-296282.0710705715
 20
-128110.5316214629
 30
0.0
 40
341.0334346504569
  1
˝¨ÖţÉčĽĆËµĂ÷Ł¨Ň»Ł©
 41
1.1
  7
_HZTXT
100
AcDbText
  0
TEXT
  5
185
330
2
100
AcDbEntity
  8
TEXT
100
AcDbText
 10
-297220.5720511264
 20
-128110.531621505
 30
0.0
 40
282.8571428571436
  1
01
 41
0.7562500000000001
  7
_HZTXT
100
AcDbText
  0
TEXT
  5
186
330
2
100
AcDbEntity
  8
TEXT
100
AcDbText
 10
-298301.1180442641
 20
-128676.2459071771
 30
0.0
 40
341.0334346504569
  1
˝¨×Ü
 41
1.1
  7
_HZTXT
100
AcDbText
  0
TEXT
  5
187
330
2
100
AcDbEntity
  8
TEXT
100
AcDbText
 10
-297754.9630290665
 20
-128676.2459071771
 30
0.0
 40
282.8571428571436
  1
1-
 41
0.7562500000000001
  7
_HZTXT
100
AcDbText
  0
TEXT
  5
188
330
2
100
AcDbEntity
  8
TEXT
100
AcDbText
 10
-296282.0710705715
 20
-128676.2459071771
 30
0.0
 40
341.0334346504569
  1
˝¨ÖţÉčĽĆËµĂ÷Ł¨¶ţŁ©
 41
1.1
  7
_HZTXT
100
AcDbText
  0
TEXT
  5
189
330
2
100
AcDbEntity
  8
TEXT
100
AcDbText
 10
-297220.5720511264
 20
-128676.2459072193
 30
0.0
 40
282.8571428571436
  1
02
 41
0.7562500000000001
  7
_HZTXT
100
AcDbText
  0
TEXT
  5
18A
330
2
100
AcDbEntity
  8
TEXT
100
AcDbText
 10
-298301.1180442641
 20
-130373.38876432
 30
0.0
 40
341.0334346504569
  1
˝¨×Ü
 41
1.1
  7
_HZTXT
100
AcDbText
  0
TEXT
  5
18B
330
2
100
AcDbEntity
  8
TEXT
100
AcDbText
 10
-297754.9630290665
 20
-130373.38876432
 30
0.0
 40
282.8571428571436
  1
1-
 41
0.7562500000000001
  7
_HZTXT
100
AcDbText
  0
TEXT
  5
18C
330
2
100
AcDbEntity
  8
TEXT
100
AcDbText
 10
-296282.0710705715
 20
-130373.38876432
 30
0.0
 40
341.0334346504569
  1
×ÜĆ˝ĂćÍĽ
 41
1.1
  7
_HZTXT
100
AcDbText
  0
TEXT
  5
18D
330
2
100
AcDbEntity
  8
TEXT
100
AcDbText
 10
-297220.5720511264
 20
-130373.3887643621
 30
0.0
 40
282.8571428571436
  1
04
 41
0.7562500000000001
  7
_HZTXT
100
AcDbText
  0
TEXT
  5
18E
330
2
100
AcDbEntity
  8
TEXT
100
AcDbText
 10
-298301.1180442641
 20
-129241.9601928914
 30
0.0
 40
341.0334346504569
  1
˝¨×Ü
 41
1.1
  7
_HZTXT
100
AcDbText
  0
TEXT
  5
18F
330
2
100
AcDbEntity
  8
TEXT
100
AcDbText
 10
-297754.9630290665
 20
-129241.9601928914
 30
0.0
 40
282.8571428571436
  1
1-
 41
0.7562500000000001
  7
_HZTXT
100
AcDbText
  0
TEXT
  5
190
330
2
100
AcDbEntity
  8
TEXT
100
AcDbText
 10
-296282.0710705715
 20
-129241.9601928914
 30
0.0
 40
341.0334346504569
  1
˝ÚÄÜÉčĽĆ×¨ĆŞ
 41
1.1
  7
_HZTXT
100
AcDbText
  0
TEXT
  5
191
330
2
100
AcDbEntity
  8
TEXT
100
AcDbText
 10
-297220.5720511264
 20
-129241.9601929336
 30
0.0
 40
282.8571428571436
  1
03
 41
0.7562500000000001
  7
_HZTXT
100
AcDbText
  0
TEXT
  5
192
330
2
100
AcDbEntity
  8
TEXT
100
AcDbText
 10
-298301.1180443062
 20
-138293.3887642779
 30
0.0
 40
341.0334346504569
  1
˝¨
 41
1.1
  7
_HZTXT
100
AcDbText
  0
TEXT
  5
193
330
2
100
AcDbEntity
  8
TEXT
100
AcDbText
 10
-297834.5022714013
 20
-138293.3887642779
 30
0.0
 40
282.8571428571436
  1
1-
 41
0.7562500000000001
  7
_HZTXT
100
AcDbText
  0
TEXT
  5
194
330
2
100
AcDbEntity
  8
TEXT
100
AcDbText
 10
-297341.413431622
 20
-138293.3887642358
 30
0.0
 40
282.8571428571436
  1
09
 41
0.7562500000000001
  7
_HZTXT
100
AcDbText
  0
TEXT
  5
195
330
2
100
AcDbEntity
  8
TEXT
100
AcDbText
 10
-296282.0710705715
 20
-138293.38876432
 30
0.0
 40
282.8571428571436
  1
1
 41
0.7562500000000001
  7
_HZTXT
100
AcDbText
  0
TEXT
  5
196
330
2
100
AcDbEntity
  8
TEXT
100
AcDbText
 10
-296119.0914787348
 20
-138293.38876432
 30
0.0
 40
341.0334346504569
  1
ŁŁÂĄ
 41
1.1
  7
_HZTXT
100
AcDbText
  0
TEXT
  5
197
330
2
100
AcDbEntity
  8
TEXT
100
AcDbText
 10
-295379.3981982311
 20
-138293.38876432
 30
0.0
 40
341.0334346504569
  1
Ç˝ÉíĎęÍĽ
 41
1.1
  7
_HZTXT
100
AcDbText
  0
TEXT
  5
198
330
2
100
AcDbEntity
  8
TEXT
100
AcDbText
 10
-294093.5499025298
 20
-138293.38876432
 30
0.0
 40
341.0334346504569
  1
Ł¨Ň»Ł©
 41
1.1
  7
_HZTXT
100
AcDbText
  0
TEXT
  5
199
330
2
100
AcDbEntity
  8
TEXT
100
AcDbText
 10
-298301.1180443062
 20
-138859.1030499922
 30
0.0
 40
341.0334346504569
  1
˝¨
 41
1.1
  7
_HZTXT
100
AcDbText
  0
TEXT
  5
19A
330
2
100
AcDbEntity
  8
TEXT
100
AcDbText
 10
-297834.5022714013
 20
-138859.1030499922
 30
0.0
 40
282.8571428571436
  1
1-
 41
0.7562500000000001
  7
_HZTXT
100
AcDbText
  0
TEXT
  5
19B
330
2
100
AcDbEntity
  8
TEXT
100
AcDbText
 10
-297341.413431622
 20
-138859.10304995
 30
0.0
 40
282.8571428571436
  1
10
 41
0.7562500000000001
  7
_HZTXT
100
AcDbText
  0
TEXT
  5
19C
330
2
100
AcDbEntity
  8
TEXT
100
AcDbText
 10
-296282.0710705715
 20
-138859.1030500344
 30
0.0
 40
282.8571428571436
  1
1
 41
0.7562500000000001
  7
_HZTXT
100
AcDbText
  0
TEXT
  5
19D
330
2
100
AcDbEntity
  8
TEXT
100
AcDbText
 10
-296119.0914787348
 20
-138859.1030500344
 30
0.0
 40
341.0334346504569
  1
ŁŁÂĄ
 41
1.1
  7
_HZTXT
100
AcDbText
  0
TEXT
  5
19E
330
2
100
AcDbEntity
  8
TEXT
100
AcDbText
 10
-295379.3981982311
 20
-138859.1030500344
 30
0.0
 40
341.0334346504569
  1
Ç˝ÉíĎęÍĽ
 41
1.1
  7
_HZTXT
100
AcDbText
  0
TEXT
  5
19F
330
2
100
AcDbEntity
  8
TEXT
100
AcDbText
 10
-294093.5499025298
 20
-138859.1030500344
 30
0.0
 40
341.0334346504569
  1
Ł¨¶ţŁ©
 41
1.1
  7
_HZTXT
100
AcDbText
  0
TEXT
  5
1A0
330
2
100
AcDbEntity
  8
TEXT
100
AcDbText
 10
-298301.1180443062
 20
-139990.5316214207
 30
0.0
 40
341.0334346504569
  1
˝¨
 41
1.1
  7
_HZTXT
100
AcDbText
  0
TEXT
  5
1A1
330
2
100
AcDbEntity
  8
TEXT
100
AcDbText
 10
-297834.5022714013
 20
-139990.5316214207
 30
0.0
 40
282.8571428571436
  1
1-
 41
0.7562500000000001
  7
_HZTXT
100
AcDbText
  0
TEXT
  5
1A2
330
2
100
AcDbEntity
  8
TEXT
100
AcDbText
 10
-297341.413431622
 20
-139990.5316213786
 30
0.0
 40
282.8571428571436
  1
12
 41
0.7562500000000001
  7
_HZTXT
100
AcDbText
  0
TEXT
  5
1A3
330
2
100
AcDbEntity
  8
TEXT
100
AcDbText
 10
-296282.0710705715
 20
-139990.5316214629
 30
0.0
 40
282.8571428571436
  1
1
 41
0.7562500000000001
  7
_HZTXT
100
AcDbText
  0
TEXT
  5
1A4
330
2
100
AcDbEntity
  8
TEXT
100
AcDbText
 10
-296119.0914787348
 20
-139990.5316214629
 30
0.0
 40
341.0334346504569
  1
ŁŁÂĄ
 41
1.1
  7
_HZTXT
100
AcDbText
  0
TEXT
  5
1A5
330
2
100
AcDbEntity
  8
TEXT
100
AcDbText
 10
-295379.3981982311
 20
-139990.5316214629
 30
0.0
 40
341.0334346504569
  1
ĂĹ´°±íĽ°ĂĹ´°ĎęÍĽ
 41
1.1
  7
_HZTXT
100
AcDbText
  0
TEXT
  5
1A6
330
2
100
AcDbEntity
  8
TEXT
100
AcDbText
 10
-298301.1180443062
 20
-139424.8173357065
 30
0.0
 40
341.0334346504569
  1
˝¨
 41
1.1
  7
_HZTXT
100
AcDbText
  0
TEXT
  5
1A7
330
2
100
AcDbEntity
  8
TEXT
100
AcDbText
 10
-297834.5022714013
 20
-139424.8173357065
 30
0.0
 40
282.8571428571436
  1
1-
 41
0.7562500000000001
  7
_HZTXT
100
AcDbText
  0
TEXT
  5
1A8
330
2
100
AcDbEntity
  8
TEXT
100
AcDbText
 10
-297341.413431622
 20
-139424.8173356644
 30
0.0
 40
282.8571428571436
  1
11
 41
0.7562500000000001
  7
_HZTXT
100
AcDbText
  0
TEXT
  5
1A9
330
2
100
AcDbEntity
  8
TEXT
100
AcDbText
 10
-296282.0710705715
 20
-139424.8173357486
 30
0.0
 40
282.8571428571436
  1
1
 41
0.7562500000000001
  7
_HZTXT
100
AcDbText
  0
TEXT
  5
1AA
330
2
100
AcDbEntity
  8
TEXT
100
AcDbText
 10
-296119.0914787348
 20
-139424.8173357486
 30
0.0
 40
341.0334346504569
  1
ŁŁÂĄ
 41
1.1
  7
_HZTXT
100
AcDbText
  0
TEXT
  5
1AB
330
2
100
AcDbEntity
  8
TEXT
100
AcDbText
 10
-295379.3981982311
 20
-139424.8173357486
 30
0.0
 40
341.0334346504569
  1
Ç˝ÉíĎęÍĽ
 41
1.1
  7
_HZTXT
100
AcDbText
  0
TEXT
  5
1AC
330
2
100
AcDbEntity
  8
TEXT
100
AcDbText
 10
-294093.5499025298
 20
-139424.8173357486
 30
0.0
 40
341.0334346504569
  1
Ł¨ČýŁ©
 41
1.1
  7
_HZTXT
100
AcDbText
  0
ENDSEC
  0
SECTION
  2
OBJECTS
  0
DICTIONARY
  5
B
330
0
100
AcDbDictionary
281
     1
  3
ACAD_COLOR
350
4E
  3
ACAD_GROUP
350
3B
  3
ACAD_LAYOUT
350
12
  3
ACAD_MATERIAL
350
D
  3
ACAD_MLEADERSTYLE
350
51
  3
ACAD_MLINESTYLE
350
3C
  3
ACAD_PLOTSETTINGS
350
3D
  3
ACAD_PLOTSTYLENAME
350
A
  3
ACAD_SCALELIST
350
4F
  3
ACAD_TABLESTYLE
350
50
  3
ACAD_VISUALSTYLE
350
2C
  3
ACDB_RECOMPOSE_DATA
350
241
  3
AcDbVariableDictionary
350
1C1
  0
DICTIONARY
  5
2E
330
29
100
AcDbDictionary
280
     1
281
     1
  0
DICTIONARY
  5
1B
330
1A
100
AcDbDictionary
280
     1
281
     1
  3
ACAD_LAYERFILTERS
360
1C
  3
ACAD_LAYERSTATES
360
1D
  3
ACLYDICTIONARY
360
1F
  0
DICTIONARY
  5
8
330
7
100
AcDbDictionary
280
     1
281
     1
  3
ADSK_XREC_LAYER_RECONCILED
360
1DF
  0
DICTIONARY
  5
1E0
330
52
100
AcDbDictionary
280
     1
281
     1
  3
ADSK_XREC_LAYER_RECONCILED
360
1E1
  0
DICTIONARY
  5
87
330
86
100
AcDbDictionary
280
     1
281
     1
  3
ADSK_XREC_LAYER_RECONCILED
360
1E2
  0
DICTIONARY
  5
132
330
131
100
AcDbDictionary
280
     1
281
     1
  3
ADSK_XREC_LAYER_RECONCILED
360
1E3
  0
DICTIONARY
  5
3
330
2
100
AcDbDictionary
280
     1
281
     1
  3
ACAD_LAYOUTSELFREF
360
4
  3
ACAD_SORTENTS
360
1AE
  0
DICTIONARY
  5
15
330
14
100
AcDbDictionary
280
     1
281
     1
  3
ACAD_LAYOUTSELFREF
360
16
  0
DICTIONARY
  5
34
330
33
100
AcDbDictionary
280
     1
281
     1
  3
ACAD_SORTENTS
360
1AD
  0
DICTIONARY
  5
7D
330
7C
100
AcDbDictionary
280
     1
281
     1
  0
DICTIONARY
  5
4E
102
{ACAD_REACTORS
330
B
102
}
330
B
100
AcDbDictionary
281
     1
  0
DICTIONARY
  5
3B
102
{ACAD_REACTORS
330
B
102
}
330
B
100
AcDbDictionary
281
     1
  0
DICTIONARY
  5
12
102
{ACAD_REACTORS
330
B
102
}
330
B
100
AcDbDictionary
281
     1
  3
Model
350
11
  3
˛ĽľÖ1
350
19
  0
DICTIONARY
  5
D
102
{ACAD_REACTORS
330
B
102
}
330
B
100
AcDbDictionary
281
     1
  3
ByBlock
350
46
  3
ByLayer
350
3E
  3
Global
350
C
  0
DICTIONARY
  5
51
102
{ACAD_REACTORS
330
B
102
}
330
B
100
AcDbDictionary
281
     1
  3
Standard
350
1D6
  0
DICTIONARY
  5
3C
102
{ACAD_REACTORS
330
B
102
}
330
B
100
AcDbDictionary
281
     1
  3
STANDARD
350
56
  0
DICTIONARY
  5
3D
102
{ACAD_REACTORS
330
B
102
}
330
B
100
AcDbDictionary
281
     1
  0
ACDBDICTIONARYWDFLT
  5
A
102
{ACAD_REACTORS
330
B
102
}
330
B
100
AcDbDictionary
281
     1
  3
Normal
350
9
100
AcDbDictionaryWithDefault
340
9
  0
DICTIONARY
  5
4F
102
{ACAD_REACTORS
330
B
102
}
330
B
100
AcDbDictionary
281
     1
  3
A0
350
5A
  3
A1
350
5B
  3
A2
350
5C
  3
A3
350
5D
  3
A4
350
5E
  3
A5
350
5F
  3
A6
350
60
  3
A7
350
61
  3
A8
350
62
  3
A9
350
63
  3
B0
350
64
  3
B1
350
65
  3
B2
350
66
  3
B3
350
67
  3
B4
350
68
  3
B5
350
69
  3
B6
350
6A
  3
B7
350
6B
  3
B8
350
6C
  3
B9
350
6D
  3
C0
350
6E
  3
C1
350
6F
  3
C2
350
70
  3
C3
350
71
  3
C4
350
72
  3
C5
350
73
  3
C6
350
74
  3
C7
350
75
  3
C8
350
76
  3
C9
350
77
  3
D0
350
78
  3
D1
350
79
  3
D2
350
7A
  0
DICTIONARY
  5
50
102
{ACAD_REACTORS
330
B
102
}
330
B
100
AcDbDictionary
281
     1
  3
Standard
350
57
  0
DICTIONARY
  5
2C
102
{ACAD_REACTORS
330
B
102
}
330
B
100
AcDbDictionary
281
     1
  3
2dWireframe
350
2B
  3
3D Hidden
350
1CB
  3
3dWireframe
350
59
  3
Basic
350
1CA
  3
Brighten
350
1CE
  3
ColorChange
350
1D2
  3
Conceptual
350
1CC
  3
Dim
350
1CD
  3
EdgeColorOff
350
1D5
  3
Facepattern
350
1D1
  3
Flat
350
1C6
  3
FlatWithEdges
350
1C7
  3
Gouraud
350
1C8
  3
GouraudWithEdges
350
1C9
  3
JitterOff
350
1D3
  3
Linepattern
350
1D0
  3
OverhangOff
350
1D4
  3
Realistic
350
58
  3
Thicken
350
1CF
  0
XRECORD
  5
241
102
{ACAD_REACTORS
330
B
102
}
330
B
100
AcDbXrecord
280
     1
 90
        1
330
57
  0
DICTIONARY
  5
1C1
102
{ACAD_REACTORS
330
B
102
}
330
B
100
AcDbDictionary
281
     1
  3
CANNOSCALE
350
1C4
  3
CMLEADERSTYLE
350
1C3
  3
CTABLESTYLE
350
1C2
  0
DICTIONARY
  5
1C
102
{ACAD_REACTORS
330
1B
102
}
330
1B
100
AcDbDictionary
281
     1
  0
DICTIONARY
  5
1D
102
{ACAD_REACTORS
330
1B
102
}
330
1B
100
AcDbDictionary
281
     1
1001
AcLayerTools
1000
F
1000
0
  0
DICTIONARY
  5
1F
102
{ACAD_REACTORS
330
1B
102
}
330
1B
100
AcDbDictionary
281
     1
1001
ACAD
1000
<All
  0
XRECORD
  5
1DF
102
{ACAD_REACTORS
330
8
102
}
330
8
100
AcDbXrecord
280
     1
290
     1
  0
XRECORD
  5
1E1
102
{ACAD_REACTORS
330
1E0
102
}
330
1E0
100
AcDbXrecord
280
     1
290
     1
  0
XRECORD
  5
1E2
102
{ACAD_REACTORS
330
87
102
}
330
87
100
AcDbXrecord
280
     1
290
     1
  0
XRECORD
  5
1E3
102
{ACAD_REACTORS
330
132
102
}
330
132
100
AcDbXrecord
280
     1
290
     1
  0
XRECORD
  5
4
102
{ACAD_REACTORS
330
3
102
}
330
3
100
AcDbXrecord
280
     1
340
2
  0
SORTENTSTABLE
  5
1AE
102
{ACAD_REACTORS
330
3
102
}
330
3
100
AcDbSortentsTable
330
2
  0
XRECORD
  5
16
102
{ACAD_REACTORS
330
15
102
}
330
15
100
AcDbXrecord
280
     1
340
14
  0
SORTENTSTABLE
  5
1AD
102
{ACAD_REACTORS
330
34
102
}
330
34
100
AcDbSortentsTable
330
33
  0
LAYOUT
  5
11
102
{ACAD_REACTORS
330
12
102
}
330
12
100
AcDbPlotSettings
  1

  2
pdfFactory Pro
  4
A3
  6

 40
7.143749713897705
 41
7.143768310546875
 42
7.143768310546875
 43
7.14373779296875
 44
297.0106506347656
 45
419.9889831542968
 46
0.0
 47
2.925094750949341
 48
-1046235.362359138
 49
-75597.71107562003
140
-986835.3623591383
141
-33597.71107562002
142
1.0
143
148.5552300309605
 70
 11956
 72
     1
 73
     1
 74
     4
  7
-şÚ°×´ňÓˇ.ctb
 75
     0
147
0.0067315031573886
 76
     1
 77
     2
 78
   300
148
1046235.362359138
149
75597.71107562003
100
AcDbLayout
  1
Model
 70
     1
 71
     0
 10
0.0
 20
0.0
 11
12.0
 21
9.0
 12
0.0
 22
0.0
 32
0.0
 14
0.0
 24
0.0
 34
0.0
 15
0.0
 25
0.0
 35
0.0
146
0.0
 13
0.0
 23
0.0
 33
0.0
 16
1.0
 26
0.0
 36
0.0
 17
0.0
 27
1.0
 37
0.0
 76
     0
330
2
331
2A
1001
ACAD_PSEXT
1000
pdfFactory Pro
1000
pdfFactory 5
1000
FPP5:
1000

1070
     0
  0
LAYOUT
  5
19
102
{ACAD_REACTORS
330
12
102
}
330
12
100
AcDbPlotSettings
  1

  2
Microsoft Office Document Image Writer
  4

  6

 40
0.0
 41
0.0
 42
0.0
 43
0.0
 44
0.0
 45
0.0
 46
0.0
 47
0.0
 48
0.0
 49
0.0
140
0.0
141
0.0
142
1.0
143
1.0
 70
   688
 72
     0
 73
     0
 74
     5
  7
-şÚ°×´ňÓˇ.ctb
 75
    16
147
1.0
 76
     0
 77
     2
 78
   300
148
0.0
149
0.0
100
AcDbLayout
  1
˛ĽľÖ1
 70
     0
 71
     1
 10
0.0
 20
0.0
 11
12.0
 21
9.0
 12
0.0
 22
0.0
 32
0.0
 14
1.000000000000000E+20
 24
1.000000000000000E+20
 34
1.000000000000000E+20
 15
-1.000000000000000E+20
 25
-1.000000000000000E+20
 35
-1.000000000000000E+20
146
0.0
 13
0.0
 23
0.0
 33
0.0
 16
1.0
 26
0.0
 36
0.0
 17
0.0
 27
1.0
 37
0.0
 76
     0
330
14
  0
MATERIAL
  5
46
102
{ACAD_XDICTIONARY
360
47
102
}
102
{ACAD_REACTORS
330
D
102
}
330
D
100
AcDbMaterial
  1
ByBlock
 72
     0
 43
0.0208333333333333
 43
0.0
 43
0.0
 43
0.0
 43
0.0
 43
0.0208333333333333
 43
0.0
 43
0.0
 43
0.0
 43
0.0
 43
1.0
 43
0.0
 43
0.0
 43
0.0
 43
0.0
 43
1.0
 77
     0
 47
0.0208333333333333
 47
0.0
 47
0.0
 47
0.0
 47
0.0
 47
0.0208333333333333
 47
0.0
 47
0.0
 47
0.0
 47
0.0
 47
1.0
 47
0.0
 47
0.0
 47
0.0
 47
0.0
 47
1.0
171
     0
 49
0.0208333333333333
 49
0.0
 49
0.0
 49
0.0
 49
0.0
 49
0.0208333333333333
 49
0.0
 49
0.0
 49
0.0
 49
0.0
 49
1.0
 49
0.0
 49
0.0
 49
0.0
 49
0.0
 49
1.0
175
     0
142
0.0208333333333333
142
0.0
142
0.0
142
0.0
142
0.0
142
0.0208333333333333
142
0.0
142
0.0
142
0.0
142
0.0
142
1.0
142
0.0
142
0.0
142
0.0
142
0.0
142
1.0
179
     0
144
0.0208333333333333
144
0.0
144
0.0
144
0.0
144
0.0
144
0.0208333333333333
144
0.0
144
0.0
144
0.0
144
0.0
144
1.0
144
0.0
144
0.0
144
0.0
144
0.0
144
1.0
147
0.0208333333333333
147
0.0
147
0.0
147
0.0
147
0.0
147
0.0208333333333333
147
0.0
147
0.0
147
0.0
147
0.0
147
1.0
147
0.0
147
0.0
147
0.0
147
0.0
147
1.0
  0
MATERIAL
  5
3E
102
{ACAD_XDICTIONARY
360
3F
102
}
102
{ACAD_REACTORS
330
D
102
}
330
D
100
AcDbMaterial
  1
ByLayer
 72
     0
 43
0.0208333333333333
 43
0.0
 43
0.0
 43
0.0
 43
0.0
 43
0.0208333333333333
 43
0.0
 43
0.0
 43
0.0
 43
0.0
 43
1.0
 43
0.0
 43
0.0
 43
0.0
 43
0.0
 43
1.0
 77
     0
 47
0.0208333333333333
 47
0.0
 47
0.0
 47
0.0
 47
0.0
 47
0.0208333333333333
 47
0.0
 47
0.0
 47
0.0
 47
0.0
 47
1.0
 47
0.0
 47
0.0
 47
0.0
 47
0.0
 47
1.0
171
     0
 49
0.0208333333333333
 49
0.0
 49
0.0
 49
0.0
 49
0.0
 49
0.0208333333333333
 49
0.0
 49
0.0
 49
0.0
 49
0.0
 49
1.0
 49
0.0
 49
0.0
 49
0.0
 49
0.0
 49
1.0
175
     0
142
0.0208333333333333
142
0.0
142
0.0
142
0.0
142
0.0
142
0.0208333333333333
142
0.0
142
0.0
142
0.0
142
0.0
142
1.0
142
0.0
142
0.0
142
0.0
142
0.0
142
1.0
179
     0
144
0.0208333333333333
144
0.0
144
0.0
144
0.0
144
0.0
144
0.0208333333333333
144
0.0
144
0.0
144
0.0
144
0.0
144
1.0
144
0.0
144
0.0
144
0.0
144
0.0
144
1.0
147
0.0208333333333333
147
0.0
147
0.0
147
0.0
147
0.0
147
0.0208333333333333
147
0.0
147
0.0
147
0.0
147
0.0
147
1.0
147
0.0
147
0.0
147
0.0
147
0.0
147
1.0
  0
MATERIAL
  5
C
102
{ACAD_XDICTIONARY
360
242
102
}
102
{ACAD_REACTORS
330
D
102
}
330
D
100
AcDbMaterial
  1
Global
 73
     1
 78
     1
172
     1
176
     1
270
     1
274
     1
  0
MLEADERSTYLE
  5
1D6
102
{ACAD_REACTORS
330
51
102
}
330
51
100
AcDbMLeaderStyle
170
     2
171
     1
172
     0
 90
        2
 40
0.0
 41
0.0
173
     1
 91
-1056964608
340
25
 92
       -2
290
     1
 42
0.09
291
     1
 43
0.36
  3
Standard
 44
0.18
300

342
22
174
     1
178
     6
175
     1
176
     0
 93
-1056964608
 45
0.18
292
     0
297
     0
 46
0.18
 94
-1056964608
 47
1.0
 49
1.0
140
1.0
293
     1
141
0.0
294
     1
177
     0
142
1.0
295
     0
296
     0
143
0.125
1001
ACAD_MLEADERVER
1070
     2
  0
MLINESTYLE
  5
56
102
{ACAD_REACTORS
330
3C
102
}
330
3C
100
AcDbMlineStyle
  2
STANDARD
 70
     0
  3

 62
   256
 51
90.0
 52
90.0
 71
     2
 49
0.5
 62
   256
  6
BYLAYER
 49
-0.5
 62
   256
  6
BYLAYER
  0
ACDBPLACEHOLDER
  5
9
102
{ACAD_REACTORS
330
A
102
}
330
A
  0
SCALE
  5
5A
102
{ACAD_REACTORS
330
4F
102
}
330
4F
100
AcDbScale
 70
     0
300
1:1
140
1.0
141
1.0
290
     1
  0
SCALE
  5
5B
102
{ACAD_REACTORS
330
4F
102
}
330
4F
100
AcDbScale
 70
     0
300
1:2
140
1.0
141
2.0
290
     0
  0
SCALE
  5
5C
102
{ACAD_REACTORS
330
4F
102
}
330
4F
100
AcDbScale
 70
     0
300
1:4
140
1.0
141
4.0
290
     0
  0
SCALE
  5
5D
102
{ACAD_REACTORS
330
4F
102
}
330
4F
100
AcDbScale
 70
     0
300
1:5
140
1.0
141
5.0
290
     0
  0
SCALE
  5
5E
102
{ACAD_REACTORS
330
4F
102
}
330
4F
100
AcDbScale
 70
     0
300
1:8
140
1.0
141
8.0
290
     0
  0
SCALE
  5
5F
102
{ACAD_REACTORS
330
4F
102
}
330
4F
100
AcDbScale
 70
     0
300
1:10
140
1.0
141
10.0
290
     0
  0
SCALE
  5
60
102
{ACAD_REACTORS
330
4F
102
}
330
4F
100
AcDbScale
 70
     0
300
1:16
140
1.0
141
16.0
290
     0
  0
SCALE
  5
61
102
{ACAD_REACTORS
330
4F
102
}
330
4F
100
AcDbScale
 70
     0
300
1:20
140
1.0
141
20.0
290
     0
  0
SCALE
  5
62
102
{ACAD_REACTORS
330
4F
102
}
330
4F
100
AcDbScale
 70
     0
300
1:30
140
1.0
141
30.0
290
     0
  0
SCALE
  5
63
102
{ACAD_REACTORS
330
4F
102
}
330
4F
100
AcDbScale
 70
     0
300
1:40
140
1.0
141
40.0
290
     0
  0
SCALE
  5
64
102
{ACAD_REACTORS
330
4F
102
}
330
4F
100
AcDbScale
 70
     0
300
1:50
140
1.0
141
50.0
290
     0
  0
SCALE
  5
65
102
{ACAD_REACTORS
330
4F
102
}
330
4F
100
AcDbScale
 70
     0
300
1:100
140
1.0
141
100.0
290
     0
  0
SCALE
  5
66
102
{ACAD_REACTORS
330
4F
102
}
330
4F
100
AcDbScale
 70
     0
300
2:1
140
2.0
141
1.0
290
     0
  0
SCALE
  5
67
102
{ACAD_REACTORS
330
4F
102
}
330
4F
100
AcDbScale
 70
     0
300
4:1
140
4.0
141
1.0
290
     0
  0
SCALE
  5
68
102
{ACAD_REACTORS
330
4F
102
}
330
4F
100
AcDbScale
 70
     0
300
8:1
140
8.0
141
1.0
290
     0
  0
SCALE
  5
69
102
{ACAD_REACTORS
330
4F
102
}
330
4F
100
AcDbScale
 70
     0
300
10:1
140
10.0
141
1.0
290
     0
  0
SCALE
  5
6A
102
{ACAD_REACTORS
330
4F
102
}
330
4F
100
AcDbScale
 70
     0
300
100:1
140
100.0
141
1.0
290
     0
  0
SCALE
  5
6B
102
{ACAD_REACTORS
330
4F
102
}
330
4F
100
AcDbScale
 70
     0
300
1/128" = 1'-0"
140
0.0078125
141
12.0
290
     0
  0
SCALE
  5
6C
102
{ACAD_REACTORS
330
4F
102
}
330
4F
100
AcDbScale
 70
     0
300
1/64" = 1'-0"
140
0.015625
141
12.0
290
     0
  0
SCALE
  5
6D
102
{ACAD_REACTORS
330
4F
102
}
330
4F
100
AcDbScale
 70
     0
300
1/32" = 1'-0"
140
0.03125
141
12.0
290
     0
  0
SCALE
  5
6E
102
{ACAD_REACTORS
330
4F
102
}
330
4F
100
AcDbScale
 70
     0
300
1/16" = 1'-0"
140
0.0625
141
12.0
290
     0
  0
SCALE
  5
6F
102
{ACAD_REACTORS
330
4F
102
}
330
4F
100
AcDbScale
 70
     0
300
3/32" = 1'-0"
140
0.09375
141
12.0
290
     0
  0
SCALE
  5
70
102
{ACAD_REACTORS
330
4F
102
}
330
4F
100
AcDbScale
 70
     0
300
1/8" = 1'-0"
140
0.125
141
12.0
290
     0
  0
SCALE
  5
71
102
{ACAD_REACTORS
330
4F
102
}
330
4F
100
AcDbScale
 70
     0
300
3/16" = 1'-0"
140
0.1875
141
12.0
290
     0
  0
SCALE
  5
72
102
{ACAD_REACTORS
330
4F
102
}
330
4F
100
AcDbScale
 70
     0
300
1/4" = 1'-0"
140
0.25
141
12.0
290
     0
  0
SCALE
  5
73
102
{ACAD_REACTORS
330
4F
102
}
330
4F
100
AcDbScale
 70
     0
300
3/8" = 1'-0"
140
0.375
141
12.0
290
     0
  0
SCALE
  5
74
102
{ACAD_REACTORS
330
4F
102
}
330
4F
100
AcDbScale
 70
     0
300
1/2" = 1'-0"
140
0.5
141
12.0
290
     0
  0
SCALE
  5
75
102
{ACAD_REACTORS
330
4F
102
}
330
4F
100
AcDbScale
 70
     0
300
3/4" = 1'-0"
140
0.75
141
12.0
290
     0
  0
SCALE
  5
76
102
{ACAD_REACTORS
330
4F
102
}
330
4F
100
AcDbScale
 70
     0
300
1" = 1'-0"
140
1.0
141
12.0
290
     0
  0
SCALE
  5
77
102
{ACAD_REACTORS
330
4F
102
}
330
4F
100
AcDbScale
 70
     0
300
1-1/2" = 1'-0"
140
1.5
141
12.0
290
     0
  0
SCALE
  5
78
102
{ACAD_REACTORS
330
4F
102
}
330
4F
100
AcDbScale
 70
     0
300
3" = 1'-0"
140
3.0
141
12.0
290
     0
  0
SCALE
  5
79
102
{ACAD_REACTORS
330
4F
102
}
330
4F
100
AcDbScale
 70
     0
300
6" = 1'-0"
140
6.0
141
12.0
290
     0
  0
SCALE
  5
7A
102
{ACAD_REACTORS
330
4F
102
}
330
4F
100
AcDbScale
 70
     0
300
1'-0" = 1'-0"
140
12.0
141
12.0
290
     0
  0
TABLESTYLE
  5
57
102
{ACAD_XDICTIONARY
360
1B3
102
}
102
{ACAD_REACTORS
330
50
102
}
330
50
100
AcDbTableStyle
  3
Standard
 70
     0
 71
     0
 40
0.06
 41
0.06
280
     0
281
     0
  7
STANDARD
140
0.18
170
     2
 62
     0
 63
     7
283
     0
274
    -2
284
     1
 64
     0
275
    -2
285
     1
 65
     0
276
    -2
286
     1
 66
     0
277
    -2
287
     1
 67
     0
278
    -2
288
     1
 68
     0
279
    -2
289
     1
 69
     0
  7
STANDARD
140
0.25
170
     5
 62
     0
 63
     7
283
     0
274
    -2
284
     1
 64
     0
275
    -2
285
     1
 65
     0
276
    -2
286
     1
 66
     0
277
    -2
287
     1
 67
     0
278
    -2
288
     1
 68
     0
279
    -2
289
     1
 69
     0
  7
STANDARD
140
0.18
170
     5
 62
     0
 63
     7
283
     0
274
    -2
284
     1
 64
     0
275
    -2
285
     1
 65
     0
276
    -2
286
     1
 66
     0
277
    -2
287
     1
 67
     0
278
    -2
288
     1
 68
     0
279
    -2
289
     1
 69
     0
  0
VISUALSTYLE
  5
2B
102
{ACAD_XDICTIONARY
360
244
102
}
102
{ACAD_REACTORS
330
2C
102
}
330
2C
100
AcDbVisualStyle
  2
2dWireframe
 70
     4
 71
     0
 72
     2
 73
     0
 90
        0
 40
-0.6
 41
-30.0
 62
     5
 63
     7
 74
     1
 91
        4
 64
     7
 65
   257
 75
     1
175
     1
 42
1.0
 92
        0
 66
   257
 43
1.0
 76
     1
 77
     6
 78
     2
 67
     7
 79
     5
170
     0
171
     0
290
     0
174
     0
 93
        1
 44
0.0
173
     0
291
     0
 45
0.0
1001
ACAD
1000
AcDbSavedByObjectVersion
1070
     0
  0
VISUALSTYLE
  5
1CB
102
{ACAD_XDICTIONARY
360
257
102
}
102
{ACAD_REACTORS
330
2C
102
}
330
2C
100
AcDbVisualStyle
  2
3D Hidden
 70
     6
 71
     1
 72
     2
 73
     2
 90
        0
 40
-0.6
 41
-30.0
 62
     5
 63
     7
421
 16777215
 74
     2
 91
        2
 64
     7
 65
   257
 75
     2
175
     1
 42
179.0
 92
        0
 66
   257
 43
1.0
 76
     1
 77
     6
 78
     2
 67
     7
 79
     3
170
     0
171
     0
290
     0
174
     0
 93
        1
 44
0.0
173
     0
291
     0
 45
0.0
1001
ACAD
1000
AcDbSavedByObjectVersion
1070
     0
  0
VISUALSTYLE
  5
59
102
{ACAD_XDICTIONARY
360
24B
102
}
102
{ACAD_REACTORS
330
2C
102
}
330
2C
100
AcDbVisualStyle
  2
3dWireframe
 70
     5
 71
     0
 72
     2
 73
     0
 90
        0
 40
-0.6
 41
-30.0
 62
     5
 63
     7
421
 16777215
 74
     1
 91
        4
 64
     7
 65
   257
 75
     1
175
     1
 42
1.0
 92
        0
 66
   257
 43
1.0
 76
     1
 77
     6
 78
     2
 67
     7
 79
     5
170
     0
171
     0
290
     0
174
     0
 93
        1
 44
0.0
173
     0
291
     0
 45
0.0
1001
ACAD
1000
AcDbSavedByObjectVersion
1070
     0
  0
VISUALSTYLE
  5
1CA
102
{ACAD_XDICTIONARY
360
255
102
}
102
{ACAD_REACTORS
330
2C
102
}
330
2C
100
AcDbVisualStyle
  2
Basic
 70
     7
 71
     1
 72
     0
 73
     1
 90
        0
 40
-0.6
 41
-30.0
 62
     5
 63
     7
421
 16777215
 74
     0
 91
        4
 64
     7
 65
   257
 75
     1
175
     1
 42
1.0
 92
        8
 66
     7
 43
1.0
 76
     1
 77
     6
 78
     2
 67
     7
 79
     5
170
     0
171
     0
290
     0
174
     0
 93
        1
 44
0.0
173
     0
291
     1
 45
0.0
1001
ACAD
1000
AcDbSavedByObjectVersion
1070
     0
  0
VISUALSTYLE
  5
1CE
102
{ACAD_XDICTIONARY
360
25D
102
}
102
{ACAD_REACTORS
330
2C
102
}
330
2C
100
AcDbVisualStyle
  2
Brighten
 70
    12
 71
     2
 72
     2
 73
     0
 90
        0
 40
-0.6
 41
-30.0
 62
     5
 63
     7
421
 16777215
 74
     1
 91
        4
 64
     7
 65
   257
 75
     1
175
     1
 42
1.0
 92
        8
 66
     7
 43
1.0
 76
     1
 77
     6
 78
     2
 67
     7
 79
     5
170
     0
171
     0
290
     0
174
     0
 93
        1
 44
50.0
173
     0
291
     1
 45
0.0
1001
ACAD
1000
AcDbSavedByObjectVersion
1070
     0
  0
VISUALSTYLE
  5
1D2
102
{ACAD_XDICTIONARY
360
265
102
}
102
{ACAD_REACTORS
330
2C
102
}
330
2C
100
AcDbVisualStyle
  2
ColorChange
 70
    16
 71
     2
 72
     2
 73
     3
 90
        0
 40
-0.6
 41
-30.0
 62
     5
 63
     8
421
  8421504
 74
     1
 91
        4
 64
     7
 65
   257
 75
     1
175
     1
 42
1.0
 92
        8
 66
     8
424
  8421504
 43
1.0
 76
     1
 77
     6
 78
     2
 67
     7
 79
     5
170
     0
171
     0
290
     0
174
     0
 93
        1
 44
0.0
173
     0
291
     1
 45
0.0
1001
ACAD
1000
AcDbSavedByObjectVersion
1070
     0
  0
VISUALSTYLE
  5
1CC
102
{ACAD_XDICTIONARY
360
259
102
}
102
{ACAD_REACTORS
330
2C
102
}
330
2C
100
AcDbVisualStyle
  2
Conceptual
 70
     9
 71
     3
 72
     2
 73
     0
 90
        0
 40
-0.6
 41
-30.0
 62
     5
 63
     7
421
 16777215
 74
     2
 91
        2
 64
     7
 65
   257
 75
     1
175
     1
 42
179.0
 92
        8
 66
     7
 43
1.0
 76
     1
 77
     6
 78
     2
 67
     7
 79
     3
170
     0
171
     0
290
     0
174
     0
 93
        1
 44
0.0
173
     0
291
     0
 45
0.0
1001
ACAD
1000
AcDbSavedByObjectVersion
1070
     0
  0
VISUALSTYLE
  5
1CD
102
{ACAD_XDICTIONARY
360
25B
102
}
102
{ACAD_REACTORS
330
2C
102
}
330
2C
100
AcDbVisualStyle
  2
Dim
 70
    11
 71
     2
 72
     2
 73
     0
 90
        0
 40
-0.6
 41
-30.0
 62
     5
 63
     7
421
 16777215
 74
     1
 91
        4
 64
     7
 65
   257
 75
     1
175
     1
 42
1.0
 92
        8
 66
     7
 43
1.0
 76
     1
 77
     6
 78
     2
 67
     7
 79
     5
170
     0
171
     0
290
     0
174
     0
 93
        1
 44
-50.0
173
     0
291
     1
 45
0.0
1001
ACAD
1000
AcDbSavedByObjectVersion
1070
     0
  0
VISUALSTYLE
  5
1D5
102
{ACAD_XDICTIONARY
360
26B
102
}
102
{ACAD_REACTORS
330
2C
102
}
330
2C
100
AcDbVisualStyle
  2
EdgeColorOff
 70
    22
 71
     2
 72
     2
 73
     0
 90
        0
 40
-0.6
 41
-30.0
 62
     5
 63
     7
421
 16777215
 74
     1
 91
        4
 64
     7
 65
   257
 75
     1
175
     1
 42
1.0
 92
        8
 66
     7
 43
1.0
 76
     1
 77
     6
 78
     2
 67
     7
 79
     5
170
     0
171
     0
290
     0
174
     0
 93
        1
 44
0.0
173
     0
291
     1
 45
0.0
1001
ACAD
1000
AcDbSavedByObjectVersion
1070
     0
  0
VISUALSTYLE
  5
1D1
102
{ACAD_XDICTIONARY
360
263
102
}
102
{ACAD_REACTORS
330
2C
102
}
330
2C
100
AcDbVisualStyle
  2
Facepattern
 70
    15
 71
     2
 72
     2
 73
     0
 90
        0
 40
-0.6
 41
-30.0
 62
     5
 63
     7
421
 16777215
 74
     1
 91
        4
 64
     7
 65
   257
 75
     1
175
     1
 42
1.0
 92
        8
 66
     7
 43
1.0
 76
     1
 77
     6
 78
     2
 67
     7
 79
     5
170
     0
171
     0
290
     0
174
     0
 93
        1
 44
0.0
173
     0
291
     1
 45
0.0
1001
ACAD
1000
AcDbSavedByObjectVersion
1070
     0
  0
VISUALSTYLE
  5
1C6
102
{ACAD_XDICTIONARY
360
24D
102
}
102
{ACAD_REACTORS
330
2C
102
}
330
2C
100
AcDbVisualStyle
  2
Flat
 70
     0
 71
     2
 72
     1
 73
     1
 90
        2
 40
-0.6
 41
30.0
 62
     5
 63
     7
421
 16777215
 74
     0
 91
        4
 64
     7
 65
   257
 75
     1
175
     1
 42
1.0
 92
        8
 66
     7
 43
1.0
 76
     1
 77
     6
 78
     2
 67
     7
 79
     5
170
     0
171
     0
290
     0
174
     0
 93
       13
 44
0.0
173
     0
291
     1
 45
0.0
1001
ACAD
1000
AcDbSavedByObjectVersion
1070
     0
  0
VISUALSTYLE
  5
1C7
102
{ACAD_XDICTIONARY
360
24F
102
}
102
{ACAD_REACTORS
330
2C
102
}
330
2C
100
AcDbVisualStyle
  2
FlatWithEdges
 70
     1
 71
     2
 72
     1
 73
     1
 90
        2
 40
-0.6
 41
30.0
 62
     5
 63
     7
421
 16777215
 74
     1
 91
        4
 64
     7
 65
   257
 75
     1
175
     1
 42
1.0
 92
        0
 66
   257
 43
1.0
 76
     1
 77
     6
 78
     2
 67
     7
 79
     5
170
     0
171
     0
290
     0
174
     0
 93
       13
 44
0.0
173
     0
291
     1
 45
0.0
1001
ACAD
1000
AcDbSavedByObjectVersion
1070
     0
  0
VISUALSTYLE
  5
1C8
102
{ACAD_XDICTIONARY
360
251
102
}
102
{ACAD_REACTORS
330
2C
102
}
330
2C
100
AcDbVisualStyle
  2
Gouraud
 70
     2
 71
     2
 72
     2
 73
     1
 90
        2
 40
-0.6
 41
30.0
 62
     5
 63
     7
421
 16777215
 74
     0
 91
        4
 64
     7
 65
   257
 75
     1
175
     1
 42
1.0
 92
        0
 66
     7
 43
1.0
 76
     1
 77
     6
 78
     2
 67
     7
 79
     5
170
     0
171
     0
290
     0
174
     0
 93
       13
 44
0.0
173
     0
291
     1
 45
0.0
1001
ACAD
1000
AcDbSavedByObjectVersion
1070
     0
  0
VISUALSTYLE
  5
1C9
102
{ACAD_XDICTIONARY
360
253
102
}
102
{ACAD_REACTORS
330
2C
102
}
330
2C
100
AcDbVisualStyle
  2
GouraudWithEdges
 70
     3
 71
     2
 72
     2
 73
     1
 90
        2
 40
-0.6
 41
30.0
 62
     5
 63
     7
421
 16777215
 74
     1
 91
        4
 64
     7
 65
   257
 75
     1
175
     1
 42
1.0
 92
        0
 66
   257
 43
1.0
 76
     1
 77
     6
 78
     2
 67
     7
 79
     5
170
     0
171
     0
290
     0
174
     0
 93
       13
 44
0.0
173
     0
291
     1
 45
0.0
1001
ACAD
1000
AcDbSavedByObjectVersion
1070
     0
  0
VISUALSTYLE
  5
1D3
102
{ACAD_XDICTIONARY
360
267
102
}
102
{ACAD_REACTORS
330
2C
102
}
330
2C
100
AcDbVisualStyle
  2
JitterOff
 70
    20
 71
     2
 72
     2
 73
     0
 90
        0
 40
-0.6
 41
-30.0
 62
     5
 63
     7
421
 16777215
 74
     1
 91
        4
 64
     7
 65
   257
 75
     1
175
     1
 42
1.0
 92
       10
 66
     7
 43
1.0
 76
     1
 77
     6
 78
     2
 67
     7
 79
     5
170
     0
171
     0
290
     0
174
     0
 93
        1
 44
0.0
173
     0
291
     1
 45
0.0
1001
ACAD
1000
AcDbSavedByObjectVersion
1070
     0
  0
VISUALSTYLE
  5
1D0
102
{ACAD_XDICTIONARY
360
261
102
}
102
{ACAD_REACTORS
330
2C
102
}
330
2C
100
AcDbVisualStyle
  2
Linepattern
 70
    14
 71
     2
 72
     2
 73
     0
 90
        0
 40
-0.6
 41
-30.0
 62
     5
 63
     7
421
 16777215
 74
     1
 91
        4
 64
     7
 65
   257
 75
     7
175
     7
 42
1.0
 92
        8
 66
     7
 43
1.0
 76
     1
 77
     6
 78
     2
 67
     7
 79
     5
170
     0
171
     0
290
     0
174
     0
 93
        1
 44
0.0
173
     0
291
     1
 45
0.0
1001
ACAD
1000
AcDbSavedByObjectVersion
1070
     0
  0
VISUALSTYLE
  5
1D4
102
{ACAD_XDICTIONARY
360
269
102
}
102
{ACAD_REACTORS
330
2C
102
}
330
2C
100
AcDbVisualStyle
  2
OverhangOff
 70
    21
 71
     2
 72
     2
 73
     0
 90
        0
 40
-0.6
 41
-30.0
 62
     5
 63
     7
421
 16777215
 74
     1
 91
        4
 64
     7
 65
   257
 75
     1
175
     1
 42
1.0
 92
        9
 66
     7
 43
1.0
 76
     1
 77
     6
 78
     2
 67
     7
 79
     5
170
     0
171
     0
290
     0
174
     0
 93
        1
 44
0.0
173
     0
291
     1
 45
0.0
1001
ACAD
1000
AcDbSavedByObjectVersion
1070
     0
  0
VISUALSTYLE
  5
58
102
{ACAD_XDICTIONARY
360
249
102
}
102
{ACAD_REACTORS
330
2C
102
}
330
2C
100
AcDbVisualStyle
  2
Realistic
 70
     8
 71
     2
 72
     2
 73
     0
 90
        0
 40
-0.6
 41
-30.0
 62
     5
 63
     7
421
 16777215
 74
     1
 91
        0
 64
     7
 65
   257
 75
     1
175
     1
 42
1.0
 92
        8
 66
     8
424
  7895160
 43
1.0
 76
     1
 77
     6
 78
     2
 67
     7
 79
     5
170
     0
171
     0
290
     0
174
     0
 93
       13
 44
0.0
173
     0
291
     0
 45
0.0
1001
ACAD
1000
AcDbSavedByObjectVersion
1070
     0
  0
VISUALSTYLE
  5
1CF
102
{ACAD_XDICTIONARY
360
25F
102
}
102
{ACAD_REACTORS
330
2C
102
}
330
2C
100
AcDbVisualStyle
  2
Thicken
 70
    13
 71
     2
 72
     2
 73
     0
 90
        0
 40
-0.6
 41
-30.0
 62
     5
 63
     7
421
 16777215
 74
     1
 91
        4
 64
     7
 65
   257
 75
     1
175
     1
 42
1.0
 92
       12
 66
     7
 43
1.0
 76
     1
 77
     6
 78
     2
 67
     7
 79
     5
170
     0
171
     0
290
     0
174
     0
 93
        1
 44
0.0
173
     0
291
     1
 45
0.0
1001
ACAD
1000
AcDbSavedByObjectVersion
1070
     0
  0
DICTIONARYVAR
  5
1C4
102
{ACAD_REACTORS
330
1C1
102
}
330
1C1
100
DictionaryVariables
280
     0
  1
1:1
  0
DICTIONARYVAR
  5
1C3
102
{ACAD_REACTORS
330
1C1
102
}
330
1C1
100
DictionaryVariables
280
     0
  1
STANDARD
  0
DICTIONARYVAR
  5
1C2
102
{ACAD_REACTORS
330
1C1
102
}
330
1C1
100
DictionaryVariables
280
     0
  1
STANDARD
  0
DICTIONARY
  5
47
330
46
100
AcDbDictionary
280
     1
281
     1
  3
ACAD_XREC_ROUNDTRIP
360
247
  3
BUMPTILE
360
48
  3
DIFFUSETILE
360
49
  3
OPACITYTILE
360
4A
  3
REFLECTIONTILE
360
4B
  3
REFRACTIONTILE
360
4C
  3
SPECULARTILE
360
4D
  0
DICTIONARY
  5
3F
330
3E
100
AcDbDictionary
280
     1
281
     1
  3
ACAD_XREC_ROUNDTRIP
360
246
  3
BUMPTILE
360
40
  3
DIFFUSETILE
360
41
  3
OPACITYTILE
360
42
  3
REFLECTIONTILE
360
43
  3
REFRACTIONTILE
360
44
  3
SPECULARTILE
360
45
  0
DICTIONARY
  5
242
330
C
100
AcDbDictionary
280
     1
281
     1
  3
ACAD_XREC_ROUNDTRIP
360
243
  0
DICTIONARY
  5
1B3
330
57
100
AcDbDictionary
280
     1
281
     1
  3
ACAD_ROUNDTRIP_2008_TABLESTYLE_CELLSTYLEMAP
360
240
  3
ACAD_XREC_ROUNDTRIP
360
248
  0
DICTIONARY
  5
244
330
2B
100
AcDbDictionary
280
     1
281
     1
  3
ACAD_XREC_ROUNDTRIP
360
245
  0
DICTIONARY
  5
257
330
1CB
100
AcDbDictionary
280
     1
281
     1
  3
ACAD_XREC_ROUNDTRIP
360
258
  0
DICTIONARY
  5
24B
330
59
100
AcDbDictionary
280
     1
281
     1
  3
ACAD_XREC_ROUNDTRIP
360
24C
  0
DICTIONARY
  5
255
330
1CA
100
AcDbDictionary
280
     1
281
     1
  3
ACAD_XREC_ROUNDTRIP
360
256
  0
DICTIONARY
  5
25D
330
1CE
100
AcDbDictionary
280
     1
281
     1
  3
ACAD_XREC_ROUNDTRIP
360
25E
  0
DICTIONARY
  5
265
330
1D2
100
AcDbDictionary
280
     1
281
     1
  3
ACAD_XREC_ROUNDTRIP
360
266
  0
DICTIONARY
  5
259
330
1CC
100
AcDbDictionary
280
     1
281
     1
  3
ACAD_XREC_ROUNDTRIP
360
25A
  0
DICTIONARY
  5
25B
330
1CD
100
AcDbDictionary
280
     1
281
     1
  3
ACAD_XREC_ROUNDTRIP
360
25C
  0
DICTIONARY
  5
26B
330
1D5
100
AcDbDictionary
280
     1
281
     1
  3
ACAD_XREC_ROUNDTRIP
360
26C
  0
DICTIONARY
  5
263
330
1D1
100
AcDbDictionary
280
     1
281
     1
  3
ACAD_XREC_ROUNDTRIP
360
264
  0
DICTIONARY
  5
24D
330
1C6
100
AcDbDictionary
280
     1
281
     1
  3
ACAD_XREC_ROUNDTRIP
360
24E
  0
DICTIONARY
  5
24F
330
1C7
100
AcDbDictionary
280
     1
281
     1
  3
ACAD_XREC_ROUNDTRIP
360
250
  0
DICTIONARY
  5
251
330
1C8
100
AcDbDictionary
280
     1
281
     1
  3
ACAD_XREC_ROUNDTRIP
360
252
  0
DICTIONARY
  5
253
330
1C9
100
AcDbDictionary
280
     1
281
     1
  3
ACAD_XREC_ROUNDTRIP
360
254
  0
DICTIONARY
  5
267
330
1D3
100
AcDbDictionary
280
     1
281
     1
  3
ACAD_XREC_ROUNDTRIP
360
268
  0
DICTIONARY
  5
261
330
1D0
100
AcDbDictionary
280
     1
281
     1
  3
ACAD_XREC_ROUNDTRIP
360
262
  0
DICTIONARY
  5
269
330
1D4
100
AcDbDictionary
280
     1
281
     1
  3
ACAD_XREC_ROUNDTRIP
360
26A
  0
DICTIONARY
  5
249
330
58
100
AcDbDictionary
280
     1
281
     1
  3
ACAD_XREC_ROUNDTRIP
360
24A
  0
DICTIONARY
  5
25F
330
1CF
100
AcDbDictionary
280
     1
281
     1
  3
ACAD_XREC_ROUNDTRIP
360
260
  0
XRECORD
  5
247
102
{ACAD_REACTORS
330
47
102
}
330
47
100
AcDbXrecord
280
     1
102
MATERIAL
148
0.0
149
0.0
149
0.0
 93
        0
 94
      127
282
     0
 72
     0
 77
     0
171
     0
175
     0
179
     0
273
     0
  0
XRECORD
  5
48
102
{ACAD_REACTORS
330
47
102
}
330
47
100
AcDbXrecord
280
     1
270
     1
271
     1
  0
XRECORD
  5
49
102
{ACAD_REACTORS
330
47
102
}
330
47
100
AcDbXrecord
280
     1
270
     1
271
     1
  0
XRECORD
  5
4A
102
{ACAD_REACTORS
330
47
102
}
330
47
100
AcDbXrecord
280
     1
270
     1
271
     1
  0
XRECORD
  5
4B
102
{ACAD_REACTORS
330
47
102
}
330
47
100
AcDbXrecord
280
     1
270
     1
271
     1
  0
XRECORD
  5
4C
102
{ACAD_REACTORS
330
47
102
}
330
47
100
AcDbXrecord
280
     1
270
     1
271
     1
  0
XRECORD
  5
4D
102
{ACAD_REACTORS
330
47
102
}
330
47
100
AcDbXrecord
280
     1
270
     1
271
     1
  0
XRECORD
  5
246
102
{ACAD_REACTORS
330
3F
102
}
330
3F
100
AcDbXrecord
280
     1
102
MATERIAL
148
0.0
149
0.0
149
0.0
 93
        0
 94
      127
282
     0
 72
     0
 77
     0
171
     0
175
     0
179
     0
273
     0
  0
XRECORD
  5
40
102
{ACAD_REACTORS
330
3F
102
}
330
3F
100
AcDbXrecord
280
     1
270
     1
271
     1
  0
XRECORD
  5
41
102
{ACAD_REACTORS
330
3F
102
}
330
3F
100
AcDbXrecord
280
     1
270
     1
271
     1
  0
XRECORD
  5
42
102
{ACAD_REACTORS
330
3F
102
}
330
3F
100
AcDbXrecord
280
     1
270
     1
271
     1
  0
XRECORD
  5
43
102
{ACAD_REACTORS
330
3F
102
}
330
3F
100
AcDbXrecord
280
     1
270
     1
271
     1
  0
XRECORD
  5
44
102
{ACAD_REACTORS
330
3F
102
}
330
3F
100
AcDbXrecord
280
     1
270
     1
271
     1
  0
XRECORD
  5
45
102
{ACAD_REACTORS
330
3F
102
}
330
3F
100
AcDbXrecord
280
     1
270
     1
271
     1
  0
XRECORD
  5
243
102
{ACAD_REACTORS
330
242
102
}
330
242
100
AcDbXrecord
280
     1
102
MATERIAL
148
0.0
149
0.0
149
0.0
 93
        0
 94
       63
282
     0
 72
     1
 77
     1
171
     1
175
     1
179
     1
273
     0
  0
CELLSTYLEMAP
  5
240
102
{ACAD_REACTORS
330
1B3
102
}
330
1B3
100
AcDbCellStyleMap
 90
        3
300
CELLSTYLE
  1
TABLEFORMAT_BEGIN
 90
        5
170
     1
 91
        0
 92
    32768
 62
   257
 93
        1
300
CONTENTFORMAT
  1
CONTENTFORMAT_BEGIN
 90
        0
 91
        0
 92
      512
 93
        0
300

 40
0.0
140
1.0
 94
        5
 62
     0
340
22
144
0.25
309
CONTENTFORMAT_END
171
     0
 94
        0
309
TABLEFORMAT_END
  1
CELLSTYLE_BEGIN
 90
        1
 91
        1
300
_TITLE
309
CELLSTYLE_END
300
CELLSTYLE
  1
TABLEFORMAT_BEGIN
 90
        5
170
     1
 91
        0
 92
        0
 62
   257
 93
        1
300
CONTENTFORMAT
  1
CONTENTFORMAT_BEGIN
 90
        0
 91
        0
 92
      512
 93
        0
300

 40
0.0
140
1.0
 94
        5
 62
     0
340
22
144
0.18
309
CONTENTFORMAT_END
171
     0
 94
        0
309
TABLEFORMAT_END
  1
CELLSTYLE_BEGIN
 90
        2
 91
        1
300
_HEADER
309
CELLSTYLE_END
300
CELLSTYLE
  1
TABLEFORMAT_BEGIN
 90
        5
170
     1
 91
        0
 92
        0
 62
   257
 93
        1
300
CONTENTFORMAT
  1
CONTENTFORMAT_BEGIN
 90
        0
 91
        0
 92
      512
 93
        0
300

 40
0.0
140
1.0
 94
        2
 62
     0
340
22
144
0.18
309
CONTENTFORMAT_END
171
     0
 94
        0
309
TABLEFORMAT_END
  1
CELLSTYLE_BEGIN
 90
        3
 91
        2
300
_DATA
309
CELLSTYLE_END
  0
XRECORD
  5
248
102
{ACAD_REACTORS
330
1B3
102
}
330
1B3
100
AcDbXrecord
280
     1
102
ACAD_ROUNDTRIP_PRE2007_TABLESTYLE
 90
      512
 91
        0
  1

 92
      512
 93
        0
  2

 94
      512
 95
        0
  3

  0
XRECORD
  5
245
102
{ACAD_REACTORS
330
244
102
}
330
244
100
AcDbXrecord
280
     1
102
RTVSPropertyOp0
 70
     1
102
RTVSPropertyOp1
 70
     1
102
RTVSPropertyOp2
 70
     1
102
RTVSPropertyOp3
 70
     1
102
RTVSPropertyOp4
 70
     1
102
RTVSPropertyOp5
 70
     1
102
RTVSPropertyOp6
 70
     1
102
RTVSPropertyOp7
 70
     1
102
RTVSPropertyOp8
 70
     1
102
RTVSPropertyOp9
 70
     1
102
RTVSPropertyOp10
 70
     1
102
RTVSPropertyOp11
 70
     1
102
RTVSPropertyOp12
 70
     1
102
RTVSPropertyOp13
 70
     1
102
RTVSPropertyOp14
 70
     1
102
RTVSPropertyOp15
 70
     1
102
RTVSPropertyOp16
 70
     1
102
RTVSPropertyOp17
 70
     1
102
RTVSPropertyOp18
 70
     1
102
RTVSPropertyOp19
 70
     1
102
RTVSPropertyOp20
 70
     1
102
RTVSPropertyOp21
 70
     1
102
RTVSPropertyOp22
 70
     1
102
RTVSPropertyOp23
 70
     1
102
RTVSPropertyOp24
 70
     1
102
RTVSPropertyOp25
 70
     1
102
RTVSPropertyOp26
 70
     1
102
RTVSPropertyOp27
 70
     1
  0
XRECORD
  5
258
102
{ACAD_REACTORS
330
257
102
}
330
257
100
AcDbXrecord
280
     1
102
RTVSPropertyOp0
 70
     1
102
RTVSPropertyOp1
 70
     1
102
RTVSPropertyOp2
 70
     1
102
RTVSPropertyOp3
 70
     1
102
RTVSPropertyOp4
 70
     1
102
RTVSPropertyOp5
 70
     1
102
RTVSPropertyOp6
 70
     1
102
RTVSPropertyOp7
 70
     1
102
RTVSPropertyOp8
 70
     1
102
RTVSPropertyOp9
 70
     1
102
RTVSPropertyOp10
 70
     1
102
RTVSPropertyOp11
 70
     1
102
RTVSPropertyOp12
 70
     1
102
RTVSPropertyOp13
 70
     1
102
RTVSPropertyOp14
 70
     1
102
RTVSPropertyOp15
 70
     1
102
RTVSPropertyOp16
 70
     1
102
RTVSPropertyOp17
 70
     1
102
RTVSPropertyOp18
 70
     1
102
RTVSPropertyOp19
 70
     1
102
RTVSPropertyOp20
 70
     1
102
RTVSPropertyOp21
 70
     1
102
RTVSPropertyOp22
 70
     1
102
RTVSPropertyOp23
 70
     1
102
RTVSPropertyOp24
 70
     1
102
RTVSPropertyOp25
 70
     1
102
RTVSPropertyOp26
 70
     1
102
RTVSPropertyOp27
 70
     1
  0
XRECORD
  5
24C
102
{ACAD_REACTORS
330
24B
102
}
330
24B
100
AcDbXrecord
280
     1
102
RTVSPropertyOp0
 70
     1
102
RTVSPropertyOp1
 70
     1
102
RTVSPropertyOp2
 70
     1
102
RTVSPropertyOp3
 70
     1
102
RTVSPropertyOp4
 70
     1
102
RTVSPropertyOp5
 70
     1
102
RTVSPropertyOp6
 70
     1
102
RTVSPropertyOp7
 70
     1
102
RTVSPropertyOp8
 70
     1
102
RTVSPropertyOp9
 70
     1
102
RTVSPropertyOp10
 70
     1
102
RTVSPropertyOp11
 70
     1
102
RTVSPropertyOp12
 70
     1
102
RTVSPropertyOp13
 70
     1
102
RTVSPropertyOp14
 70
     1
102
RTVSPropertyOp15
 70
     1
102
RTVSPropertyOp16
 70
     1
102
RTVSPropertyOp17
 70
     1
102
RTVSPropertyOp18
 70
     1
102
RTVSPropertyOp19
 70
     1
102
RTVSPropertyOp20
 70
     1
102
RTVSPropertyOp21
 70
     1
102
RTVSPropertyOp22
 70
     1
102
RTVSPropertyOp23
 70
     1
102
RTVSPropertyOp24
 70
     1
102
RTVSPropertyOp25
 70
     1
102
RTVSPropertyOp26
 70
     1
102
RTVSPropertyOp27
 70
     1
  0
XRECORD
  5
256
102
{ACAD_REACTORS
330
255
102
}
330
255
100
AcDbXrecord
280
     1
102
RTVSPropertyOp0
 70
     1
102
RTVSPropertyOp1
 70
     1
102
RTVSPropertyOp2
 70
     1
102
RTVSPropertyOp3
 70
     1
102
RTVSPropertyOp4
 70
     1
102
RTVSPropertyOp5
 70
     1
102
RTVSPropertyOp6
 70
     1
102
RTVSPropertyOp7
 70
     1
102
RTVSPropertyOp8
 70
     1
102
RTVSPropertyOp9
 70
     1
102
RTVSPropertyOp10
 70
     1
102
RTVSPropertyOp11
 70
     1
102
RTVSPropertyOp12
 70
     1
102
RTVSPropertyOp13
 70
     1
102
RTVSPropertyOp14
 70
     1
102
RTVSPropertyOp15
 70
     1
102
RTVSPropertyOp16
 70
     1
102
RTVSPropertyOp17
 70
     1
102
RTVSPropertyOp18
 70
     1
102
RTVSPropertyOp19
 70
     1
102
RTVSPropertyOp20
 70
     1
102
RTVSPropertyOp21
 70
     1
102
RTVSPropertyOp22
 70
     1
102
RTVSPropertyOp23
 70
     1
102
RTVSPropertyOp24
 70
     1
102
RTVSPropertyOp25
 70
     1
102
RTVSPropertyOp26
 70
     1
102
RTVSPropertyOp27
 70
     1
  0
XRECORD
  5
25E
102
{ACAD_REACTORS
330
25D
102
}
330
25D
100
AcDbXrecord
280
     1
102
RTVSPropertyOp0
 70
     1
102
RTVSPropertyOp1
 70
     1
102
RTVSPropertyOp2
 70
     1
102
RTVSPropertyOp3
 70
     1
102
RTVSPropertyOp4
 70
     1
102
RTVSPropertyOp5
 70
     1
102
RTVSPropertyOp6
 70
     1
102
RTVSPropertyOp7
 70
     1
102
RTVSPropertyOp8
 70
     1
102
RTVSPropertyOp9
 70
     1
102
RTVSPropertyOp10
 70
     1
102
RTVSPropertyOp11
 70
     1
102
RTVSPropertyOp12
 70
     1
102
RTVSPropertyOp13
 70
     1
102
RTVSPropertyOp14
 70
     1
102
RTVSPropertyOp15
 70
     1
102
RTVSPropertyOp16
 70
     1
102
RTVSPropertyOp17
 70
     1
102
RTVSPropertyOp18
 70
     1
102
RTVSPropertyOp19
 70
     1
102
RTVSPropertyOp20
 70
     1
102
RTVSPropertyOp21
 70
     1
102
RTVSPropertyOp22
 70
     1
102
RTVSPropertyOp23
 70
     1
102
RTVSPropertyOp24
 70
     1
102
RTVSPropertyOp25
 70
     1
102
RTVSPropertyOp26
 70
     1
102
RTVSPropertyOp27
 70
     1
  0
XRECORD
  5
266
102
{ACAD_REACTORS
330
265
102
}
330
265
100
AcDbXrecord
280
     1
102
RTVSPropertyOp0
 70
     1
102
RTVSPropertyOp1
 70
     1
102
RTVSPropertyOp2
 70
     1
102
RTVSPropertyOp3
 70
     1
102
RTVSPropertyOp4
 70
     1
102
RTVSPropertyOp5
 70
     1
102
RTVSPropertyOp6
 70
     1
102
RTVSPropertyOp7
 70
     1
102
RTVSPropertyOp8
 70
     1
102
RTVSPropertyOp9
 70
     1
102
RTVSPropertyOp10
 70
     1
102
RTVSPropertyOp11
 70
     1
102
RTVSPropertyOp12
 70
     1
102
RTVSPropertyOp13
 70
     1
102
RTVSPropertyOp14
 70
     1
102
RTVSPropertyOp15
 70
     1
102
RTVSPropertyOp16
 70
     1
102
RTVSPropertyOp17
 70
     1
102
RTVSPropertyOp18
 70
     1
102
RTVSPropertyOp19
 70
     1
102
RTVSPropertyOp20
 70
     1
102
RTVSPropertyOp21
 70
     1
102
RTVSPropertyOp22
 70
     1
102
RTVSPropertyOp23
 70
     1
102
RTVSPropertyOp24
 70
     1
102
RTVSPropertyOp25
 70
     1
102
RTVSPropertyOp26
 70
     1
102
RTVSPropertyOp27
 70
     1
  0
XRECORD
  5
25A
102
{ACAD_REACTORS
330
259
102
}
330
259
100
AcDbXrecord
280
     1
102
RTVSPropertyOp0
 70
     1
102
RTVSPropertyOp1
 70
     1
102
RTVSPropertyOp2
 70
     1
102
RTVSPropertyOp3
 70
     1
102
RTVSPropertyOp4
 70
     1
102
RTVSPropertyOp5
 70
     1
102
RTVSPropertyOp6
 70
     1
102
RTVSPropertyOp7
 70
     1
102
RTVSPropertyOp8
 70
     1
102
RTVSPropertyOp9
 70
     1
102
RTVSPropertyOp10
 70
     1
102
RTVSPropertyOp11
 70
     1
102
RTVSPropertyOp12
 70
     1
102
RTVSPropertyOp13
 70
     1
102
RTVSPropertyOp14
 70
     1
102
RTVSPropertyOp15
 70
     1
102
RTVSPropertyOp16
 70
     1
102
RTVSPropertyOp17
 70
     1
102
RTVSPropertyOp18
 70
     1
102
RTVSPropertyOp19
 70
     1
102
RTVSPropertyOp20
 70
     1
102
RTVSPropertyOp21
 70
     1
102
RTVSPropertyOp22
 70
     1
102
RTVSPropertyOp23
 70
     1
102
RTVSPropertyOp24
 70
     1
102
RTVSPropertyOp25
 70
     1
102
RTVSPropertyOp26
 70
     1
102
RTVSPropertyOp27
 70
     1
  0
XRECORD
  5
25C
102
{ACAD_REACTORS
330
25B
102
}
330
25B
100
AcDbXrecord
280
     1
102
RTVSPropertyOp0
 70
     1
102
RTVSPropertyOp1
 70
     1
102
RTVSPropertyOp2
 70
     1
102
RTVSPropertyOp3
 70
     1
102
RTVSPropertyOp4
 70
     1
102
RTVSPropertyOp5
 70
     1
102
RTVSPropertyOp6
 70
     1
102
RTVSPropertyOp7
 70
     1
102
RTVSPropertyOp8
 70
     1
102
RTVSPropertyOp9
 70
     1
102
RTVSPropertyOp10
 70
     1
102
RTVSPropertyOp11
 70
     1
102
RTVSPropertyOp12
 70
     1
102
RTVSPropertyOp13
 70
     1
102
RTVSPropertyOp14
 70
     1
102
RTVSPropertyOp15
 70
     1
102
RTVSPropertyOp16
 70
     1
102
RTVSPropertyOp17
 70
     1
102
RTVSPropertyOp18
 70
     1
102
RTVSPropertyOp19
 70
     1
102
RTVSPropertyOp20
 70
     1
102
RTVSPropertyOp21
 70
     1
102
RTVSPropertyOp22
 70
     1
102
RTVSPropertyOp23
 70
     1
102
RTVSPropertyOp24
 70
     1
102
RTVSPropertyOp25
 70
     1
102
RTVSPropertyOp26
 70
     1
102
RTVSPropertyOp27
 70
     1
  0
XRECORD
  5
26C
102
{ACAD_REACTORS
330
26B
102
}
330
26B
100
AcDbXrecord
280
     1
102
RTVSPropertyOp0
 70
     0
102
RTVSPropertyOp1
 70
     0
102
RTVSPropertyOp2
 70
     0
102
RTVSPropertyOp3
 70
     0
102
RTVSPropertyOp4
 70
     0
102
RTVSPropertyOp5
 70
     0
102
RTVSPropertyOp6
 70
     0
102
RTVSPropertyOp7
 70
     0
102
RTVSPropertyOp8
 70
     0
102
RTVSPropertyOp9
 70
     0
102
RTVSPropertyOp10
 70
     0
102
RTVSPropertyOp11
 70
     0
102
RTVSPropertyOp12
 70
     0
102
RTVSPropertyOp13
 70
     0
102
RTVSPropertyOp14
 70
     2
102
RTVSPropertyOp15
 70
     0
102
RTVSPropertyOp16
 70
     0
102
RTVSPropertyOp17
 70
     0
102
RTVSPropertyOp18
 70
     0
102
RTVSPropertyOp19
 70
     0
102
RTVSPropertyOp20
 70
     0
102
RTVSPropertyOp21
 70
     0
102
RTVSPropertyOp22
 70
     0
102
RTVSPropertyOp23
 70
     0
102
RTVSPropertyOp24
 70
     0
102
RTVSPropertyOp25
 70
     0
102
RTVSPropertyOp26
 70
     0
102
RTVSPropertyOp27
 70
     0
  0
XRECORD
  5
264
102
{ACAD_REACTORS
330
263
102
}
330
263
100
AcDbXrecord
280
     1
102
RTVSPropertyOp0
 70
     1
102
RTVSPropertyOp1
 70
     1
102
RTVSPropertyOp2
 70
     1
102
RTVSPropertyOp3
 70
     1
102
RTVSPropertyOp4
 70
     1
102
RTVSPropertyOp5
 70
     1
102
RTVSPropertyOp6
 70
     1
102
RTVSPropertyOp7
 70
     1
102
RTVSPropertyOp8
 70
     1
102
RTVSPropertyOp9
 70
     1
102
RTVSPropertyOp10
 70
     1
102
RTVSPropertyOp11
 70
     1
102
RTVSPropertyOp12
 70
     1
102
RTVSPropertyOp13
 70
     1
102
RTVSPropertyOp14
 70
     1
102
RTVSPropertyOp15
 70
     1
102
RTVSPropertyOp16
 70
     1
102
RTVSPropertyOp17
 70
     1
102
RTVSPropertyOp18
 70
     1
102
RTVSPropertyOp19
 70
     1
102
RTVSPropertyOp20
 70
     1
102
RTVSPropertyOp21
 70
     1
102
RTVSPropertyOp22
 70
     1
102
RTVSPropertyOp23
 70
     1
102
RTVSPropertyOp24
 70
     1
102
RTVSPropertyOp25
 70
     1
102
RTVSPropertyOp26
 70
     1
102
RTVSPropertyOp27
 70
     1
  0
XRECORD
  5
24E
102
{ACAD_REACTORS
330
24D
102
}
330
24D
100
AcDbXrecord
280
     1
102
RTVSPropertyOp0
 70
     1
102
RTVSPropertyOp1
 70
     1
102
RTVSPropertyOp2
 70
     1
102
RTVSPropertyOp3
 70
     1
102
RTVSPropertyOp4
 70
     1
102
RTVSPropertyOp5
 70
     1
102
RTVSPropertyOp6
 70
     1
102
RTVSPropertyOp7
 70
     1
102
RTVSPropertyOp8
 70
     1
102
RTVSPropertyOp9
 70
     1
102
RTVSPropertyOp10
 70
     1
102
RTVSPropertyOp11
 70
     1
102
RTVSPropertyOp12
 70
     1
102
RTVSPropertyOp13
 70
     1
102
RTVSPropertyOp14
 70
     1
102
RTVSPropertyOp15
 70
     1
102
RTVSPropertyOp16
 70
     1
102
RTVSPropertyOp17
 70
     1
102
RTVSPropertyOp18
 70
     1
102
RTVSPropertyOp19
 70
     1
102
RTVSPropertyOp20
 70
     1
102
RTVSPropertyOp21
 70
     1
102
RTVSPropertyOp22
 70
     1
102
RTVSPropertyOp23
 70
     1
102
RTVSPropertyOp24
 70
     1
102
RTVSPropertyOp25
 70
     1
102
RTVSPropertyOp26
 70
     1
102
RTVSPropertyOp27
 70
     1
  0
XRECORD
  5
250
102
{ACAD_REACTORS
330
24F
102
}
330
24F
100
AcDbXrecord
280
     1
102
RTVSPropertyOp0
 70
     1
102
RTVSPropertyOp1
 70
     1
102
RTVSPropertyOp2
 70
     1
102
RTVSPropertyOp3
 70
     1
102
RTVSPropertyOp4
 70
     1
102
RTVSPropertyOp5
 70
     1
102
RTVSPropertyOp6
 70
     1
102
RTVSPropertyOp7
 70
     1
102
RTVSPropertyOp8
 70
     1
102
RTVSPropertyOp9
 70
     1
102
RTVSPropertyOp10
 70
     1
102
RTVSPropertyOp11
 70
     1
102
RTVSPropertyOp12
 70
     1
102
RTVSPropertyOp13
 70
     1
102
RTVSPropertyOp14
 70
     1
102
RTVSPropertyOp15
 70
     1
102
RTVSPropertyOp16
 70
     1
102
RTVSPropertyOp17
 70
     1
102
RTVSPropertyOp18
 70
     1
102
RTVSPropertyOp19
 70
     1
102
RTVSPropertyOp20
 70
     1
102
RTVSPropertyOp21
 70
     1
102
RTVSPropertyOp22
 70
     1
102
RTVSPropertyOp23
 70
     1
102
RTVSPropertyOp24
 70
     1
102
RTVSPropertyOp25
 70
     1
102
RTVSPropertyOp26
 70
     1
102
RTVSPropertyOp27
 70
     1
  0
XRECORD
  5
252
102
{ACAD_REACTORS
330
251
102
}
330
251
100
AcDbXrecord
280
     1
102
RTVSPropertyOp0
 70
     1
102
RTVSPropertyOp1
 70
     1
102
RTVSPropertyOp2
 70
     1
102
RTVSPropertyOp3
 70
     1
102
RTVSPropertyOp4
 70
     1
102
RTVSPropertyOp5
 70
     1
102
RTVSPropertyOp6
 70
     1
102
RTVSPropertyOp7
 70
     1
102
RTVSPropertyOp8
 70
     1
102
RTVSPropertyOp9
 70
     1
102
RTVSPropertyOp10
 70
     1
102
RTVSPropertyOp11
 70
     1
102
RTVSPropertyOp12
 70
     1
102
RTVSPropertyOp13
 70
     1
102
RTVSPropertyOp14
 70
     1
102
RTVSPropertyOp15
 70
     1
102
RTVSPropertyOp16
 70
     1
102
RTVSPropertyOp17
 70
     1
102
RTVSPropertyOp18
 70
     1
102
RTVSPropertyOp19
 70
     1
102
RTVSPropertyOp20
 70
     1
102
RTVSPropertyOp21
 70
     1
102
RTVSPropertyOp22
 70
     1
102
RTVSPropertyOp23
 70
     1
102
RTVSPropertyOp24
 70
     1
102
RTVSPropertyOp25
 70
     1
102
RTVSPropertyOp26
 70
     1
102
RTVSPropertyOp27
 70
     1
  0
XRECORD
  5
254
102
{ACAD_REACTORS
330
253
102
}
330
253
100
AcDbXrecord
280
     1
102
RTVSPropertyOp0
 70
     1
102
RTVSPropertyOp1
 70
     1
102
RTVSPropertyOp2
 70
     1
102
RTVSPropertyOp3
 70
     1
102
RTVSPropertyOp4
 70
     1
102
RTVSPropertyOp5
 70
     1
102
RTVSPropertyOp6
 70
     1
102
RTVSPropertyOp7
 70
     1
102
RTVSPropertyOp8
 70
     1
102
RTVSPropertyOp9
 70
     1
102
RTVSPropertyOp10
 70
     1
102
RTVSPropertyOp11
 70
     1
102
RTVSPropertyOp12
 70
     1
102
RTVSPropertyOp13
 70
     1
102
RTVSPropertyOp14
 70
     1
102
RTVSPropertyOp15
 70
     1
102
RTVSPropertyOp16
 70
     1
102
RTVSPropertyOp17
 70
     1
102
RTVSPropertyOp18
 70
     1
102
RTVSPropertyOp19
 70
     1
102
RTVSPropertyOp20
 70
     1
102
RTVSPropertyOp21
 70
     1
102
RTVSPropertyOp22
 70
     1
102
RTVSPropertyOp23
 70
     1
102
RTVSPropertyOp24
 70
     1
102
RTVSPropertyOp25
 70
     1
102
RTVSPropertyOp26
 70
     1
102
RTVSPropertyOp27
 70
     1
  0
XRECORD
  5
268
102
{ACAD_REACTORS
330
267
102
}
330
267
100
AcDbXrecord
280
     1
102
RTVSPropertyOp0
 70
     0
102
RTVSPropertyOp1
 70
     0
102
RTVSPropertyOp2
 70
     0
102
RTVSPropertyOp3
 70
     0
102
RTVSPropertyOp4
 70
     0
102
RTVSPropertyOp5
 70
     0
102
RTVSPropertyOp6
 70
     0
102
RTVSPropertyOp7
 70
     0
102
RTVSPropertyOp8
 70
     0
102
RTVSPropertyOp9
 70
     0
102
RTVSPropertyOp10
 70
     0
102
RTVSPropertyOp11
 70
     0
102
RTVSPropertyOp12
 70
     0
102
RTVSPropertyOp13
 70
     0
102
RTVSPropertyOp14
 70
     2
102
RTVSPropertyOp15
 70
     0
102
RTVSPropertyOp16
 70
     0
102
RTVSPropertyOp17
 70
     0
102
RTVSPropertyOp18
 70
     0
102
RTVSPropertyOp19
 70
     0
102
RTVSPropertyOp20
 70
     0
102
RTVSPropertyOp21
 70
     0
102
RTVSPropertyOp22
 70
     0
102
RTVSPropertyOp23
 70
     0
102
RTVSPropertyOp24
 70
     0
102
RTVSPropertyOp25
 70
     0
102
RTVSPropertyOp26
 70
     0
102
RTVSPropertyOp27
 70
     0
  0
XRECORD
  5
262
102
{ACAD_REACTORS
330
261
102
}
330
261
100
AcDbXrecord
280
     1
102
RTVSPropertyOp0
 70
     1
102
RTVSPropertyOp1
 70
     1
102
RTVSPropertyOp2
 70
     1
102
RTVSPropertyOp3
 70
     1
102
RTVSPropertyOp4
 70
     1
102
RTVSPropertyOp5
 70
     1
102
RTVSPropertyOp6
 70
     1
102
RTVSPropertyOp7
 70
     1
102
RTVSPropertyOp8
 70
     1
102
RTVSPropertyOp9
 70
     1
102
RTVSPropertyOp10
 70
     1
102
RTVSPropertyOp11
 70
     1
102
RTVSPropertyOp12
 70
     1
102
RTVSPropertyOp13
 70
     1
102
RTVSPropertyOp14
 70
     1
102
RTVSPropertyOp15
 70
     1
102
RTVSPropertyOp16
 70
     1
102
RTVSPropertyOp17
 70
     1
102
RTVSPropertyOp18
 70
     1
102
RTVSPropertyOp19
 70
     1
102
RTVSPropertyOp20
 70
     1
102
RTVSPropertyOp21
 70
     1
102
RTVSPropertyOp22
 70
     1
102
RTVSPropertyOp23
 70
     1
102
RTVSPropertyOp24
 70
     1
102
RTVSPropertyOp25
 70
     1
102
RTVSPropertyOp26
 70
     1
102
RTVSPropertyOp27
 70
     1
  0
XRECORD
  5
26A
102
{ACAD_REACTORS
330
269
102
}
330
269
100
AcDbXrecord
280
     1
102
RTVSPropertyOp0
 70
     0
102
RTVSPropertyOp1
 70
     0
102
RTVSPropertyOp2
 70
     0
102
RTVSPropertyOp3
 70
     0
102
RTVSPropertyOp4
 70
     0
102
RTVSPropertyOp5
 70
     0
102
RTVSPropertyOp6
 70
     0
102
RTVSPropertyOp7
 70
     0
102
RTVSPropertyOp8
 70
     0
102
RTVSPropertyOp9
 70
     0
102
RTVSPropertyOp10
 70
     0
102
RTVSPropertyOp11
 70
     0
102
RTVSPropertyOp12
 70
     0
102
RTVSPropertyOp13
 70
     0
102
RTVSPropertyOp14
 70
     2
102
RTVSPropertyOp15
 70
     0
102
RTVSPropertyOp16
 70
     0
102
RTVSPropertyOp17
 70
     0
102
RTVSPropertyOp18
 70
     0
102
RTVSPropertyOp19
 70
     0
102
RTVSPropertyOp20
 70
     0
102
RTVSPropertyOp21
 70
     0
102
RTVSPropertyOp22
 70
     0
102
RTVSPropertyOp23
 70
     0
102
RTVSPropertyOp24
 70
     0
102
RTVSPropertyOp25
 70
     0
102
RTVSPropertyOp26
 70
     0
102
RTVSPropertyOp27
 70
     0
  0
XRECORD
  5
24A
102
{ACAD_REACTORS
330
249
102
}
330
249
100
AcDbXrecord
280
     1
102
RTVSPropertyOp0
 70
     1
102
RTVSPropertyOp1
 70
     1
102
RTVSPropertyOp2
 70
     1
102
RTVSPropertyOp3
 70
     1
102
RTVSPropertyOp4
 70
     1
102
RTVSPropertyOp5
 70
     1
102
RTVSPropertyOp6
 70
     1
102
RTVSPropertyOp7
 70
     1
102
RTVSPropertyOp8
 70
     1
102
RTVSPropertyOp9
 70
     1
102
RTVSPropertyOp10
 70
     1
102
RTVSPropertyOp11
 70
     1
102
RTVSPropertyOp12
 70
     1
102
RTVSPropertyOp13
 70
     1
102
RTVSPropertyOp14
 70
     1
102
RTVSPropertyOp15
 70
     1
102
RTVSPropertyOp16
 70
     1
102
RTVSPropertyOp17
 70
     1
102
RTVSPropertyOp18
 70
     1
102
RTVSPropertyOp19
 70
     1
102
RTVSPropertyOp20
 70
     1
102
RTVSPropertyOp21
 70
     1
102
RTVSPropertyOp22
 70
     1
102
RTVSPropertyOp23
 70
     1
102
RTVSPropertyOp24
 70
     1
102
RTVSPropertyOp25
 70
     1
102
RTVSPropertyOp26
 70
     1
102
RTVSPropertyOp27
 70
     1
  0
XRECORD
  5
260
102
{ACAD_REACTORS
330
25F
102
}
330
25F
100
AcDbXrecord
280
     1
102
RTVSPropertyOp0
 70
     1
102
RTVSPropertyOp1
 70
     1
102
RTVSPropertyOp2
 70
     1
102
RTVSPropertyOp3
 70
     1
102
RTVSPropertyOp4
 70
     1
102
RTVSPropertyOp5
 70
     1
102
RTVSPropertyOp6
 70
     1
102
RTVSPropertyOp7
 70
     1
102
RTVSPropertyOp8
 70
     1
102
RTVSPropertyOp9
 70
     1
102
RTVSPropertyOp10
 70
     1
102
RTVSPropertyOp11
 70
     1
102
RTVSPropertyOp12
 70
     1
102
RTVSPropertyOp13
 70
     1
102
RTVSPropertyOp14
 70
     1
102
RTVSPropertyOp15
 70
     1
102
RTVSPropertyOp16
 70
     1
102
RTVSPropertyOp17
 70
     1
102
RTVSPropertyOp18
 70
     1
102
RTVSPropertyOp19
 70
     1
102
RTVSPropertyOp20
 70
     1
102
RTVSPropertyOp21
 70
     1
102
RTVSPropertyOp22
 70
     1
102
RTVSPropertyOp23
 70
     1
102
RTVSPropertyOp24
 70
     1
102
RTVSPropertyOp25
 70
     1
102
RTVSPropertyOp26
 70
     1
102
RTVSPropertyOp27
 70
     1
  0
ENDSEC
  0
EOF
